<svg width="20" height="20" viewBox="0 0 20 20" fill="none" xmlns="http://www.w3.org/2000/svg">
<path fill-rule="evenodd" clip-rule="evenodd" d="M3.33342 4.16667C3.1124 4.16667 2.90044 4.25446 2.74416 4.41074C2.58788 4.56702 2.50008 4.77899 2.50008 5V6.66667C2.50008 7.1269 2.12699 7.5 1.66675 7.5C1.20651 7.5 0.833416 7.1269 0.833416 6.66667V5C0.833416 4.33696 1.09681 3.70107 1.56565 3.23223C2.03449 2.76339 2.67037 2.5 3.33342 2.5H16.6667C17.3298 2.5 17.9657 2.76339 18.4345 3.23223C18.9034 3.70107 19.1667 4.33696 19.1667 5V15C19.1667 15.663 18.9034 16.2989 18.4345 16.7678C17.9657 17.2366 17.3298 17.5 16.6667 17.5H11.6667C11.2065 17.5 10.8334 17.1269 10.8334 16.6667C10.8334 16.2064 11.2065 15.8333 11.6667 15.8333H16.6667C16.8878 15.8333 17.0997 15.7455 17.256 15.5893C17.4123 15.433 17.5001 15.221 17.5001 15V5C17.5001 4.77899 17.4123 4.56702 17.256 4.41074C17.0997 4.25446 16.8878 4.16667 16.6667 4.16667H3.33342ZM0.838523 9.94955C0.889397 9.49214 1.30145 9.16257 1.75886 9.21344C3.63923 9.42257 5.39245 10.2653 6.73027 11.6031C8.06808 12.941 8.91084 14.6942 9.11998 16.5746C9.17085 17.032 8.84128 17.444 8.38386 17.4949C7.92645 17.5458 7.5144 17.2162 7.46352 16.7588C7.29622 15.2545 6.62201 13.8519 5.55176 12.7817C4.4815 11.7114 3.07892 11.0372 1.57463 10.8699C1.11722 10.819 0.787649 10.407 0.838523 9.94955ZM0.850224 13.2501C0.942193 12.7992 1.38232 12.5082 1.83327 12.6001C2.79417 12.7961 3.67622 13.2703 4.36966 13.9638C5.0631 14.6572 5.53731 15.5393 5.73327 16.5001C5.82524 16.9511 5.53423 17.3912 5.08327 17.4832C4.63232 17.5752 4.19219 17.2841 4.10022 16.8332C3.96958 16.1926 3.65344 15.6046 3.19115 15.1423C2.72885 14.68 2.14082 14.3638 1.50022 14.2332C1.04927 14.1412 0.758254 13.7011 0.850224 13.2501Z" fill="#161719"/>
<path fill-rule="evenodd" clip-rule="evenodd" d="M0.833252 16.6667C0.833252 16.2065 1.20635 15.8334 1.66659 15.8334H1.67492C2.13516 15.8334 2.50825 16.2065 2.50825 16.6667C2.50825 17.1269 2.13516 17.5 1.67492 17.5H1.66659C1.20635 17.5 0.833252 17.1269 0.833252 16.6667Z" fill="#161719"/>
</svg>
