<svg width="20" height="20" viewBox="0 0 20 20" fill="none" xmlns="http://www.w3.org/2000/svg">
<path fill-rule="evenodd" clip-rule="evenodd" d="M4.16675 4.16667C3.70651 4.16667 3.33341 4.53976 3.33341 5V16.6667C3.33341 17.1269 3.70651 17.5 4.16675 17.5H15.8334C16.2937 17.5 16.6667 17.1269 16.6667 16.6667V5C16.6667 4.53976 16.2937 4.16667 15.8334 4.16667H4.16675ZM1.66675 5C1.66675 3.61929 2.78604 2.5 4.16675 2.5H15.8334C17.2141 2.5 18.3334 3.61929 18.3334 5V16.6667C18.3334 18.0474 17.2141 19.1667 15.8334 19.1667H4.16675C2.78604 19.1667 1.66675 18.0474 1.66675 16.6667V5Z" fill="#161719"/>
<path fill-rule="evenodd" clip-rule="evenodd" d="M13.3333 0.833374C13.7936 0.833374 14.1667 1.20647 14.1667 1.66671V5.00004C14.1667 5.46028 13.7936 5.83337 13.3333 5.83337C12.8731 5.83337 12.5 5.46028 12.5 5.00004V1.66671C12.5 1.20647 12.8731 0.833374 13.3333 0.833374Z" fill="#161719"/>
<path fill-rule="evenodd" clip-rule="evenodd" d="M6.66658 0.833374C7.12682 0.833374 7.49992 1.20647 7.49992 1.66671V5.00004C7.49992 5.46028 7.12682 5.83337 6.66658 5.83337C6.20635 5.83337 5.83325 5.46028 5.83325 5.00004V1.66671C5.83325 1.20647 6.20635 0.833374 6.66658 0.833374Z" fill="#161719"/>
<path fill-rule="evenodd" clip-rule="evenodd" d="M1.66675 8.33333C1.66675 7.8731 2.03984 7.5 2.50008 7.5H17.5001C17.9603 7.5 18.3334 7.8731 18.3334 8.33333C18.3334 8.79357 17.9603 9.16667 17.5001 9.16667H2.50008C2.03984 9.16667 1.66675 8.79357 1.66675 8.33333Z" fill="#161719"/>
</svg>
