<svg width="20" height="20" viewBox="0 0 20 20" fill="none" xmlns="http://www.w3.org/2000/svg">
<path fill-rule="evenodd" clip-rule="evenodd" d="M10.2308 2.84615C6.40728 2.84615 3.30771 5.94571 3.30771 9.76922C3.30771 10.9494 3.60226 12.058 4.1211 13.0284C4.23609 13.2434 4.26131 13.4953 4.19123 13.7289L3.29984 16.7002L6.27113 15.8088C6.50473 15.7387 6.75657 15.7639 6.97163 15.8789C7.94196 16.3977 9.0506 16.6923 10.2308 16.6923C14.0543 16.6923 17.1538 13.5927 17.1538 9.76922C17.1538 5.94571 14.0543 2.84615 10.2308 2.84615ZM1.46156 9.76922C1.46156 4.92611 5.38767 1 10.2308 1C15.0739 1 19 4.92611 19 9.76922C19 14.6123 15.0739 18.5384 10.2308 18.5384C8.87803 18.5384 7.59472 18.2315 6.4487 17.6829L2.18834 18.961C1.86308 19.0586 1.51051 18.9697 1.27039 18.7296C1.03026 18.4895 0.941374 18.1369 1.03895 17.8117L2.31706 13.5513C1.76848 12.4053 1.46156 11.122 1.46156 9.76922Z" fill="#161719"/>
</svg>
