<svg width="20" height="20" viewBox="0 0 20 20" fill="none" xmlns="http://www.w3.org/2000/svg">
<path fill-rule="evenodd" clip-rule="evenodd" d="M3.33333 10.8334C3.79357 10.8334 4.16667 11.2065 4.16667 11.6667V17.5C4.16667 17.9603 3.79357 18.3334 3.33333 18.3334C2.8731 18.3334 2.5 17.9603 2.5 17.5V11.6667C2.5 11.2065 2.8731 10.8334 3.33333 10.8334Z" fill="#161719"/>
<path fill-rule="evenodd" clip-rule="evenodd" d="M3.33333 1.66663C3.79357 1.66663 4.16667 2.03972 4.16667 2.49996V8.33329C4.16667 8.79353 3.79357 9.16663 3.33333 9.16663C2.8731 9.16663 2.5 8.79353 2.5 8.33329V2.49996C2.5 2.03972 2.8731 1.66663 3.33333 1.66663Z" fill="#161719"/>
<path fill-rule="evenodd" clip-rule="evenodd" d="M10.0001 9.16663C10.4603 9.16663 10.8334 9.53972 10.8334 9.99996V17.5C10.8334 17.9602 10.4603 18.3333 10.0001 18.3333C9.53984 18.3333 9.16675 17.9602 9.16675 17.5V9.99996C9.16675 9.53972 9.53984 9.16663 10.0001 9.16663Z" fill="#161719"/>
<path fill-rule="evenodd" clip-rule="evenodd" d="M10.0001 1.66663C10.4603 1.66663 10.8334 2.03972 10.8334 2.49996V6.66663C10.8334 7.12686 10.4603 7.49996 10.0001 7.49996C9.53984 7.49996 9.16675 7.12686 9.16675 6.66663V2.49996C9.16675 2.03972 9.53984 1.66663 10.0001 1.66663Z" fill="#161719"/>
<path fill-rule="evenodd" clip-rule="evenodd" d="M16.6666 12.5C17.1268 12.5 17.4999 12.8731 17.4999 13.3333V17.5C17.4999 17.9602 17.1268 18.3333 16.6666 18.3333C16.2063 18.3333 15.8333 17.9602 15.8333 17.5V13.3333C15.8333 12.8731 16.2063 12.5 16.6666 12.5Z" fill="#161719"/>
<path fill-rule="evenodd" clip-rule="evenodd" d="M16.6666 1.66663C17.1268 1.66663 17.4999 2.03972 17.4999 2.49996V9.99996C17.4999 10.4602 17.1268 10.8333 16.6666 10.8333C16.2063 10.8333 15.8333 10.4602 15.8333 9.99996V2.49996C15.8333 2.03972 16.2063 1.66663 16.6666 1.66663Z" fill="#161719"/>
<path fill-rule="evenodd" clip-rule="evenodd" d="M0 11.6667C0 11.2065 0.373096 10.8334 0.833333 10.8334H5.83333C6.29357 10.8334 6.66667 11.2065 6.66667 11.6667C6.66667 12.1269 6.29357 12.5 5.83333 12.5H0.833333C0.373096 12.5 0 12.1269 0 11.6667Z" fill="#161719"/>
<path fill-rule="evenodd" clip-rule="evenodd" d="M6.66675 6.66671C6.66675 6.20647 7.03984 5.83337 7.50008 5.83337H12.5001C12.9603 5.83337 13.3334 6.20647 13.3334 6.66671C13.3334 7.12694 12.9603 7.50004 12.5001 7.50004H7.50008C7.03984 7.50004 6.66675 7.12694 6.66675 6.66671Z" fill="#161719"/>
<path fill-rule="evenodd" clip-rule="evenodd" d="M13.3333 13.3333C13.3333 12.8731 13.7063 12.5 14.1666 12.5H19.1666C19.6268 12.5 19.9999 12.8731 19.9999 13.3333C19.9999 13.7936 19.6268 14.1667 19.1666 14.1667H14.1666C13.7063 14.1667 13.3333 13.7936 13.3333 13.3333Z" fill="#161719"/>
</svg>
