<svg width="20" height="20" viewBox="0 0 20 20" fill="none" xmlns="http://www.w3.org/2000/svg">
<path fill-rule="evenodd" clip-rule="evenodd" d="M3.33325 3.33329C3.11224 3.33329 2.90028 3.42109 2.744 3.57737C2.58772 3.73365 2.49992 3.94561 2.49992 4.16663V15.8333C2.49992 16.0543 2.58772 16.2663 2.744 16.4225C2.90028 16.5788 3.11224 16.6666 3.33325 16.6666H16.6666C16.8876 16.6666 17.0996 16.5788 17.2558 16.4225C17.4121 16.2663 17.4999 16.0543 17.4999 15.8333V6.66663C17.4999 6.44561 17.4121 6.23365 17.2558 6.07737C17.0996 5.92109 16.8876 5.83329 16.6666 5.83329H9.16658C8.88796 5.83329 8.62776 5.69404 8.47321 5.46221L7.05393 3.33329H3.33325ZM1.56548 2.39886C2.03433 1.93002 2.67021 1.66663 3.33325 1.66663H7.49992C7.77855 1.66663 8.03874 1.80588 8.19329 2.03771L9.61257 4.16663H16.6666C17.3296 4.16663 17.9655 4.43002 18.4344 4.89886C18.9032 5.3677 19.1666 6.00358 19.1666 6.66663V15.8333C19.1666 16.4963 18.9032 17.1322 18.4344 17.6011C17.9655 18.0699 17.3296 18.3333 16.6666 18.3333H3.33325C2.67021 18.3333 2.03433 18.0699 1.56548 17.6011C1.09664 17.1322 0.833252 16.4963 0.833252 15.8333V4.16663C0.833252 3.50358 1.09664 2.8677 1.56548 2.39886Z" fill="#161719"/>
</svg>
