<svg width="20" height="20" viewBox="0 0 20 20" fill="none" xmlns="http://www.w3.org/2000/svg">
<path fill-rule="evenodd" clip-rule="evenodd" d="M18.9227 1.07735C19.1717 1.32638 19.2373 1.70507 19.0866 2.02335L11.5866 17.8567C11.4359 18.1748 11.1016 18.3639 10.7513 18.3292C10.4011 18.2945 10.1104 18.0435 10.025 17.7021L8.47958 11.5205L2.29799 9.97506C1.95652 9.88969 1.70551 9.59899 1.67082 9.24872C1.63614 8.89846 1.82527 8.56417 2.14336 8.41349L17.9767 0.913494C18.295 0.762731 18.6737 0.828326 18.9227 1.07735ZM4.96123 8.92291L9.36888 10.0248C9.66745 10.0995 9.90058 10.3326 9.97522 10.6312L11.0771 15.0388L16.5815 3.41859L4.96123 8.92291Z" fill="#161719"/>
</svg>
