<svg width="20" height="20" viewBox="0 0 20 20" fill="none" xmlns="http://www.w3.org/2000/svg">
<path fill-rule="evenodd" clip-rule="evenodd" d="M8.40508 1.32826C8.53883 1.02732 8.83726 0.833374 9.16659 0.833374C10.0506 0.833374 10.8985 1.18456 11.5236 1.80968C12.1487 2.43481 12.4999 3.28265 12.4999 4.16671V6.66671H16.379C16.7396 6.66337 17.0967 6.7381 17.4258 6.88578C17.7564 7.03417 18.0508 7.25268 18.2886 7.52615C18.5264 7.79963 18.7019 8.12154 18.803 8.46957C18.904 8.81761 18.9282 9.18346 18.8738 9.54176L17.7238 17.0417C17.7238 17.0419 17.7239 17.0414 17.7238 17.0417C17.6333 17.6375 17.3305 18.1813 16.8712 18.5717C16.4131 18.9611 15.83 19.1723 15.2289 19.1667H3.33325C2.67021 19.1667 2.03433 18.9033 1.56548 18.4345C1.09664 17.9656 0.833252 17.3297 0.833252 16.6667V10.8334C0.833252 10.1703 1.09664 9.53445 1.56548 9.06561C2.03433 8.59677 2.67021 8.33337 3.33325 8.33337H5.29169L8.40508 1.32826ZM4.99992 10H3.33325C3.11224 10 2.90028 10.0878 2.744 10.2441C2.58772 10.4004 2.49992 10.6124 2.49992 10.8334V16.6667C2.49992 16.8877 2.58772 17.0997 2.744 17.256C2.90028 17.4122 3.11224 17.5 3.33325 17.5H4.99992V10ZM6.66659 17.5H15.2427C15.4436 17.5023 15.6387 17.4319 15.7918 17.3018C15.9449 17.1716 16.0459 16.9905 16.076 16.7918L17.226 9.29165C17.226 9.29176 17.226 9.29154 17.226 9.29165C17.2441 9.17232 17.2361 9.05016 17.2024 8.93426C17.1687 8.81825 17.1102 8.71094 17.031 8.61978C16.9517 8.52863 16.8536 8.45579 16.7433 8.40633C16.6331 8.35686 16.5135 8.33195 16.3927 8.33332L16.3833 8.33343L11.6666 8.33337C11.2063 8.33337 10.8333 7.96028 10.8333 7.50004V4.16671C10.8333 3.72468 10.6577 3.30076 10.3451 2.9882C10.1552 2.79833 9.92426 2.659 9.67311 2.57887L6.66659 9.34355V17.5Z" fill="#161719"/>
</svg>
