<svg width="20" height="20" viewBox="0 0 20 20" fill="none" xmlns="http://www.w3.org/2000/svg">
<g clip-path="url(#clip0_147_2215)">
<path fill-rule="evenodd" clip-rule="evenodd" d="M9.99992 2.50004C5.85778 2.50004 2.49992 5.8579 2.49992 10C2.49992 14.1422 5.85778 17.5 9.99992 17.5C14.1421 17.5 17.4999 14.1422 17.4999 10C17.4999 5.8579 14.1421 2.50004 9.99992 2.50004ZM0.833252 10C0.833252 4.93743 4.93731 0.833374 9.99992 0.833374C15.0625 0.833374 19.1666 4.93743 19.1666 10C19.1666 15.0626 15.0625 19.1667 9.99992 19.1667C4.93731 19.1667 0.833252 15.0626 0.833252 10Z" fill="#161719"/>
<path fill-rule="evenodd" clip-rule="evenodd" d="M13.0893 6.9107C13.4148 7.23614 13.4148 7.76378 13.0893 8.08921L8.08934 13.0892C7.7639 13.4147 7.23626 13.4147 6.91083 13.0892C6.58539 12.7638 6.58539 12.2361 6.91083 11.9107L11.9108 6.9107C12.2363 6.58527 12.7639 6.58527 13.0893 6.9107Z" fill="#161719"/>
<path fill-rule="evenodd" clip-rule="evenodd" d="M6.91083 6.9107C7.23626 6.58527 7.7639 6.58527 8.08934 6.9107L13.0893 11.9107C13.4148 12.2361 13.4148 12.7638 13.0893 13.0892C12.7639 13.4147 12.2363 13.4147 11.9108 13.0892L6.91083 8.08921C6.58539 7.76378 6.58539 7.23614 6.91083 6.9107Z" fill="#161719"/>
</g>
<defs>
<clipPath id="clip0_147_2215">
<rect width="20" height="20" fill="white"/>
</clipPath>
</defs>
</svg>
