<svg width="20" height="20" viewBox="0 0 20 20" fill="none" xmlns="http://www.w3.org/2000/svg">
<path fill-rule="evenodd" clip-rule="evenodd" d="M9.48846 1.00891C9.78939 0.774861 10.2108 0.774861 10.5117 1.00891L18.0117 6.84225C18.2147 7.00013 18.3334 7.24288 18.3334 7.50004V16.6667C18.3334 17.3297 18.07 17.9656 17.6012 18.4345C17.1323 18.9033 16.4965 19.1667 15.8334 19.1667H4.16675C3.50371 19.1667 2.86782 18.9033 2.39898 18.4345C1.93014 17.9656 1.66675 17.3297 1.66675 16.6667V7.50004C1.66675 7.24288 1.78548 7.00013 1.98846 6.84225L9.48846 1.00891ZM3.33341 7.90761V16.6667C3.33341 16.8877 3.42121 17.0997 3.57749 17.256C3.73377 17.4122 3.94573 17.5 4.16675 17.5H15.8334C16.0544 17.5 16.2664 17.4122 16.4227 17.256C16.579 17.0997 16.6667 16.8877 16.6667 16.6667V7.90761L10.0001 2.72242L3.33341 7.90761Z" fill="#161719"/>
<path fill-rule="evenodd" clip-rule="evenodd" d="M11.4014 10.7693C13.5548 9.61119 16.0698 9.65776 17.7169 10.0238L17.2831 11.9762C15.9302 11.6755 13.9452 11.6721 12.3486 12.5307C10.8471 13.3382 9.5 15.0085 9.5 18.5H7.5C7.5 14.3914 9.15293 11.9784 11.4014 10.7693Z" fill="#161719"/>
</svg>
