<svg width="20" height="20" viewBox="0 0 20 20" fill="none" xmlns="http://www.w3.org/2000/svg">
<g clip-path="url(#clip0_147_2197)">
<path fill-rule="evenodd" clip-rule="evenodd" d="M19.1666 2.5C19.6268 2.5 19.9999 2.8731 19.9999 3.33333V8.33333C19.9999 8.79357 19.6268 9.16667 19.1666 9.16667H14.1666C13.7063 9.16667 13.3333 8.79357 13.3333 8.33333C13.3333 7.8731 13.7063 7.5 14.1666 7.5H18.3333V3.33333C18.3333 2.8731 18.7063 2.5 19.1666 2.5Z" fill="#161719"/>
<path fill-rule="evenodd" clip-rule="evenodd" d="M10.9395 3.40096C9.50837 3.19796 8.05003 3.4656 6.78424 4.16355C5.51845 4.86149 4.51379 5.95193 3.92165 7.27053C3.32952 8.58914 3.18198 10.0645 3.50129 11.4742C3.82059 12.884 4.58943 14.1518 5.69194 15.0865C6.79446 16.0213 8.17093 16.5724 9.61392 16.6568C11.0569 16.7413 12.4882 16.3544 13.6922 15.5546C14.8962 14.7547 15.8077 13.5852 16.2892 12.2223C16.4425 11.7884 16.9186 11.5609 17.3525 11.7142C17.7865 11.8675 18.014 12.3436 17.8606 12.7775C17.2588 14.4812 16.1195 15.943 14.6145 16.9428C13.1095 17.9426 11.3203 18.4262 9.51658 18.3207C7.71285 18.2151 5.99226 17.5262 4.61411 16.3578C3.23597 15.1893 2.27492 13.6046 1.87579 11.8424C1.47666 10.0802 1.66108 8.23604 2.40125 6.58778C3.14142 4.93952 4.39725 3.57648 5.97948 2.70405C7.56172 1.83162 9.38465 1.49707 11.1736 1.75081C12.9582 2.00395 14.6125 2.82889 15.8885 4.10171L19.7379 7.72659C20.0729 8.04211 20.0888 8.56951 19.7733 8.90457C19.4577 9.23963 18.9303 9.25547 18.5953 8.93994L14.7369 5.30661C14.7308 5.30083 14.7248 5.29496 14.7188 5.289C13.697 4.26658 12.3706 3.60395 10.9395 3.40096Z" fill="#161719"/>
</g>
<defs>
<clipPath id="clip0_147_2197">
<rect width="20" height="20" fill="white"/>
</clipPath>
</defs>
</svg>
