<svg width="20" height="20" viewBox="0 0 20 20" fill="none" xmlns="http://www.w3.org/2000/svg">
<g clip-path="url(#clip0_147_2195)">
<path fill-rule="evenodd" clip-rule="evenodd" d="M9.99992 2.50004C5.85778 2.50004 2.49992 5.8579 2.49992 10C2.49992 14.1422 5.85778 17.5 9.99992 17.5C14.1421 17.5 17.4999 14.1422 17.4999 10C17.4999 5.8579 14.1421 2.50004 9.99992 2.50004ZM0.833252 10C0.833252 4.93743 4.93731 0.833374 9.99992 0.833374C15.0625 0.833374 19.1666 4.93743 19.1666 10C19.1666 15.0626 15.0625 19.1667 9.99992 19.1667C4.93731 19.1667 0.833252 15.0626 0.833252 10Z" fill="#161719"/>
<path fill-rule="evenodd" clip-rule="evenodd" d="M0.833252 9.99996C0.833252 9.53972 1.20635 9.16663 1.66659 9.16663H18.3333C18.7935 9.16663 19.1666 9.53972 19.1666 9.99996C19.1666 10.4602 18.7935 10.8333 18.3333 10.8333H1.66659C1.20635 10.8333 0.833252 10.4602 0.833252 9.99996Z" fill="#161719"/>
<path fill-rule="evenodd" clip-rule="evenodd" d="M7.50011 9.99997C7.55722 12.5623 8.43846 15.0293 9.99992 17.041C11.5614 15.0293 12.4426 12.5623 12.4997 9.99997C12.4426 7.4376 11.5614 4.97067 9.99992 2.95896C8.43846 4.97067 7.55722 7.4376 7.50011 9.99997ZM9.99992 1.66663L9.38463 1.10461C7.164 3.53572 5.90201 6.69068 5.83343 9.98261C5.83319 9.99418 5.83319 10.0058 5.83343 10.0173C5.90201 13.3093 7.164 16.4642 9.38463 18.8953C9.54251 19.0682 9.76582 19.1666 9.99992 19.1666C10.234 19.1666 10.4573 19.0682 10.6152 18.8953C12.8358 16.4642 14.0978 13.3093 14.1664 10.0173C14.1666 10.0058 14.1666 9.99418 14.1664 9.98261C14.0978 6.69068 12.8358 3.53572 10.6152 1.10461L9.99992 1.66663Z" fill="#161719"/>
</g>
<defs>
<clipPath id="clip0_147_2195">
<rect width="20" height="20" fill="white"/>
</clipPath>
</defs>
</svg>
