<svg width="20" height="20" viewBox="0 0 20 20" fill="none" xmlns="http://www.w3.org/2000/svg">
<g clip-path="url(#clip0_147_2223)">
<path fill-rule="evenodd" clip-rule="evenodd" d="M9.62724 0.921351C9.86185 0.804048 10.138 0.804048 10.3726 0.921351L18.7059 5.08802C18.9882 5.22918 19.1666 5.51773 19.1666 5.83337C19.1666 6.14902 18.9882 6.43757 18.7059 6.57873L10.3726 10.7454C10.138 10.8627 9.86185 10.8627 9.62724 10.7454L1.29391 6.57873C1.01159 6.43757 0.833252 6.14902 0.833252 5.83337C0.833252 5.51773 1.01159 5.22918 1.29391 5.08802L9.62724 0.921351ZM3.52997 5.83337L9.99992 9.06835L16.4699 5.83337L9.99992 2.5984L3.52997 5.83337Z" fill="#161719"/>
<path fill-rule="evenodd" clip-rule="evenodd" d="M0.92129 13.794C1.12711 13.3823 1.62767 13.2155 2.03932 13.4213L9.99998 17.4016L17.9606 13.4213C18.3723 13.2155 18.8728 13.3823 19.0787 13.794C19.2845 14.2056 19.1176 14.7062 18.706 14.912L10.3727 19.0787C10.138 19.196 9.86191 19.196 9.6273 19.0787L1.29397 14.912C0.882319 14.7062 0.715465 14.2056 0.92129 13.794Z" fill="#161719"/>
<path fill-rule="evenodd" clip-rule="evenodd" d="M0.92129 9.62734C1.12711 9.21569 1.62767 9.04884 2.03932 9.25466L9.99998 13.235L17.9606 9.25466C18.3723 9.04884 18.8728 9.21569 19.0787 9.62734C19.2845 10.039 19.1176 10.5396 18.706 10.7454L10.3727 14.912C10.138 15.0293 9.86191 15.0293 9.6273 14.912L1.29397 10.7454C0.882319 10.5396 0.715465 10.039 0.92129 9.62734Z" fill="#161719"/>
</g>
<defs>
<clipPath id="clip0_147_2223">
<rect width="20" height="20" fill="white"/>
</clipPath>
</defs>
</svg>
