<svg width="20" height="20" viewBox="0 0 20 20" fill="none" xmlns="http://www.w3.org/2000/svg">
<path fill-rule="evenodd" clip-rule="evenodd" d="M10.4672 3.41812C10.7531 3.27828 11.0937 3.31352 11.345 3.50892L18.8449 9.34225C19.0479 9.50013 19.1667 9.74289 19.1667 10C19.1667 10.2572 19.0479 10.5 18.8449 10.6578L11.345 16.4912C11.0937 16.6866 10.7531 16.7218 10.4672 16.582C10.1813 16.4421 10 16.1517 10 15.8334V4.16671C10 3.84844 10.1813 3.55795 10.4672 3.41812ZM11.6667 5.87058V14.1295L16.976 10L11.6667 5.87058Z" fill="#161719"/>
<path fill-rule="evenodd" clip-rule="evenodd" d="M1.30046 3.41812C1.58637 3.27828 1.92697 3.31352 2.1782 3.50892L9.6782 9.34225C9.88119 9.50013 9.99992 9.74289 9.99992 10C9.99992 10.2572 9.88119 10.5 9.6782 10.6578L2.1782 16.4912C1.92697 16.6866 1.58637 16.7218 1.30046 16.582C1.01455 16.4421 0.833252 16.1517 0.833252 15.8334V4.16671C0.833252 3.84844 1.01455 3.55795 1.30046 3.41812ZM2.49992 5.87058V14.1295L7.80923 10L2.49992 5.87058Z" fill="#161719"/>
</svg>
