<svg width="20" height="20" viewBox="0 0 20 20" fill="none" xmlns="http://www.w3.org/2000/svg">
<path fill-rule="evenodd" clip-rule="evenodd" d="M2.39898 2.39886C2.86782 1.93002 3.50371 1.66663 4.16675 1.66663H6.66675C7.12699 1.66663 7.50008 2.03972 7.50008 2.49996C7.50008 2.9602 7.12699 3.33329 6.66675 3.33329H4.16675C3.94573 3.33329 3.73377 3.42109 3.57749 3.57737C3.42121 3.73365 3.33341 3.94561 3.33341 4.16663V6.66663C3.33341 7.12686 2.96032 7.49996 2.50008 7.49996C2.03984 7.49996 1.66675 7.12686 1.66675 6.66663V4.16663C1.66675 3.50358 1.93014 2.8677 2.39898 2.39886ZM12.5001 2.49996C12.5001 2.03972 12.8732 1.66663 13.3334 1.66663H15.8334C16.4965 1.66663 17.1323 1.93002 17.6012 2.39886C18.07 2.8677 18.3334 3.50358 18.3334 4.16663V6.66663C18.3334 7.12686 17.9603 7.49996 17.5001 7.49996C17.0398 7.49996 16.6667 7.12686 16.6667 6.66663V4.16663C16.6667 3.94561 16.579 3.73365 16.4227 3.57737C16.2664 3.42109 16.0544 3.33329 15.8334 3.33329H13.3334C12.8732 3.33329 12.5001 2.9602 12.5001 2.49996ZM2.50008 12.5C2.96032 12.5 3.33341 12.8731 3.33341 13.3333V15.8333C3.33341 16.0543 3.42121 16.2663 3.57749 16.4225C3.73377 16.5788 3.94573 16.6666 4.16675 16.6666H6.66675C7.12699 16.6666 7.50008 17.0397 7.50008 17.5C7.50008 17.9602 7.12699 18.3333 6.66675 18.3333H4.16675C3.50371 18.3333 2.86782 18.0699 2.39898 17.6011C1.93014 17.1322 1.66675 16.4963 1.66675 15.8333V13.3333C1.66675 12.8731 2.03984 12.5 2.50008 12.5ZM17.5001 12.5C17.9603 12.5 18.3334 12.8731 18.3334 13.3333V15.8333C18.3334 16.4963 18.07 17.1322 17.6012 17.6011C17.1323 18.0699 16.4965 18.3333 15.8334 18.3333H13.3334C12.8732 18.3333 12.5001 17.9602 12.5001 17.5C12.5001 17.0397 12.8732 16.6666 13.3334 16.6666H15.8334C16.0544 16.6666 16.2664 16.5788 16.4227 16.4225C16.579 16.2663 16.6667 16.0543 16.6667 15.8333V13.3333C16.6667 12.8731 17.0398 12.5 17.5001 12.5Z" fill="#161719"/>
</svg>
