<svg width="20" height="20" viewBox="0 0 20 20" fill="none" xmlns="http://www.w3.org/2000/svg">
<path d="M15.8333 9.16663H4.16667C3.24619 9.16663 2.5 9.91282 2.5 10.8333V16.6666C2.5 17.5871 3.24619 18.3333 4.16667 18.3333H15.8333C16.7538 18.3333 17.5 17.5871 17.5 16.6666V10.8333C17.5 9.91282 16.7538 9.16663 15.8333 9.16663Z" stroke="#161719" stroke-width="2" stroke-linecap="round" stroke-linejoin="round"/>
<path fill-rule="evenodd" clip-rule="evenodd" d="M10 2.50004C9.11594 2.50004 8.2681 2.85123 7.64298 3.47635C7.01786 4.10147 6.66667 4.94932 6.66667 5.83337V9.16671C6.66667 9.62695 6.29357 10 5.83333 10C5.3731 10 5 9.62695 5 9.16671V5.83337C5 4.50729 5.52678 3.23552 6.46447 2.29784C7.40215 1.36016 8.67392 0.833374 10 0.833374C11.3261 0.833374 12.5979 1.36016 13.5355 2.29784C14.4732 3.23552 15 4.50729 15 5.83337C15 6.29361 14.6269 6.66671 14.1667 6.66671C13.7064 6.66671 13.3333 6.29361 13.3333 5.83337C13.3333 4.94932 12.9821 4.10147 12.357 3.47635C11.7319 2.85123 10.8841 2.50004 10 2.50004Z" fill="#161719"/>
</svg>
