<svg width="20" height="20" viewBox="0 0 20 20" fill="none" xmlns="http://www.w3.org/2000/svg">
<path fill-rule="evenodd" clip-rule="evenodd" d="M0.243878 0.244064C0.569398 -0.0813546 1.09674 -0.0813546 1.42226 0.244064C8.12391 6.94531 13.1014 11.9229 19.7555 18.5774C20.0811 18.9029 20.0811 19.4304 19.7555 19.7559C19.43 20.0814 18.9027 20.0814 18.5772 19.7559L14.111 15.2901C13.3021 15.9245 12.3532 16.3654 11.3384 16.5735L11.1895 16.6022C11.0715 16.6237 10.9527 16.6419 10.833 16.657V18.3333H13.333C13.7936 18.3333 14.1664 18.7064 14.1664 19.1666C14.1664 19.6268 13.7936 20 13.333 20H6.66639C6.20578 20 5.83306 19.6268 5.83306 19.1666C5.83306 18.7064 6.20578 18.3333 6.66639 18.3333H9.16638V16.6571C8.58207 16.5835 8.00753 16.4326 7.4574 16.2056C6.22938 15.6989 5.18039 14.837 4.44553 13.7303C3.71148 12.6243 3.32411 11.3245 3.33306 9.99705V8.33334C3.33306 7.87313 3.70578 7.50001 4.16639 7.50001C4.33892 7.50001 4.49842 7.55209 4.63107 7.6414C4.85324 7.79114 4.99972 8.04515 4.99972 8.33334V10.0061C4.9924 11.0025 5.28293 11.9782 5.83387 12.8083C6.38563 13.6384 7.17176 14.2849 8.09298 14.6649C8.62439 14.8841 9.18673 15.0087 9.75476 15.0366C9.83207 15.0128 9.91426 15 9.99971 15C10.0485 15 10.0957 15.0042 10.1421 15.0121C10.1771 15.0181 10.2113 15.0263 10.2447 15.0366C10.4986 15.0241 10.7525 14.9923 11.0039 14.9408C11.6981 14.7984 12.3508 14.5108 12.9213 14.1002L11.6924 12.8716C11.1838 13.1714 10.6003 13.3333 9.99971 13.3333C9.11592 13.3333 8.26795 12.9822 7.64295 12.357C7.01795 11.7319 6.66639 10.8841 6.66639 10V7.84526L0.243878 1.42265C0.0453106 1.22368 -0.0320004 0.949323 0.0119448 0.691755C0.027407 0.599084 0.0591452 0.508549 0.106346 0.424524C0.142967 0.359928 0.188539 0.299097 0.243878 0.244064ZM8.33305 9.51192V10C8.33305 10.2406 8.38513 10.4759 8.48279 10.6907C8.56498 10.8706 8.67891 11.0361 8.82133 11.1785C9.13383 11.4911 9.55782 11.6667 9.99971 11.6667C10.147 11.6667 10.2919 11.6473 10.431 11.6099L8.33305 9.51192Z" fill="#161719"/>
<path d="M15.833 7.50001C16.2936 7.50001 16.6664 7.87313 16.6664 8.33334V10L16.6655 10.0824L16.6623 10.2313C16.6566 10.4071 16.6436 10.5827 16.6232 10.7574C16.607 10.8963 16.5866 11.0346 16.5614 11.1722C16.48 11.6252 16.0471 11.9265 15.5946 11.8452C15.1413 11.7639 14.8402 11.3309 14.9208 10.8779C14.9728 10.5879 14.9997 10.2939 14.9997 9.99929V8.33334C14.9997 8.17058 15.0461 8.0187 15.1267 7.89033C15.2739 7.65585 15.5352 7.50001 15.833 7.50001Z" fill="#161719"/>
<path d="M7.64295 0.976382C8.26795 0.35118 9.11592 2.54313e-05 9.99971 2.54313e-05C10.8843 2.54313e-05 11.7315 0.35118 12.3573 0.976382C12.9823 1.60148 13.333 2.44926 13.333 3.33335V7.50001C13.333 7.96021 12.9603 8.33334 12.4997 8.33334C12.0391 8.33334 11.6664 7.96021 11.6664 7.50001V3.33335C11.6664 2.98515 11.5581 2.64803 11.3588 2.36788C11.305 2.2925 11.2448 2.22119 11.1781 2.15487C10.8656 1.84227 10.4416 1.66669 9.99971 1.66669C9.55782 1.66669 9.13383 1.84227 8.82133 2.15487C8.50883 2.46737 8.33305 2.89136 8.33305 3.33335V4.27085L8.32654 4.27044C8.27527 4.68172 7.92452 5.00001 7.49972 5.00001C7.03911 5.00001 6.66639 4.62689 6.66639 4.16668V4.1498C6.66395 4.05682 6.65337 3.60404 6.66639 3.33335C6.68185 3.03062 6.74451 2.61609 6.74451 2.61609C6.88042 1.99984 7.18966 1.42957 7.64295 0.976382Z" fill="#161719"/>
</svg>
