<svg width="20" height="20" viewBox="0 0 20 20" fill="none" xmlns="http://www.w3.org/2000/svg">
<path fill-rule="evenodd" clip-rule="evenodd" d="M4.16675 3.33329C3.94573 3.33329 3.73377 3.42109 3.57749 3.57737C3.42121 3.73365 3.33341 3.94561 3.33341 4.16663V15.4881L5.24416 13.5774C5.40044 13.4211 5.6124 13.3333 5.83342 13.3333H15.8334C16.0544 13.3333 16.2664 13.2455 16.4227 13.0892C16.579 12.9329 16.6667 12.721 16.6667 12.5V4.16663C16.6667 3.94561 16.579 3.73365 16.4227 3.57737C16.2664 3.42109 16.0544 3.33329 15.8334 3.33329H4.16675ZM2.39898 2.39886C2.86782 1.93002 3.50371 1.66663 4.16675 1.66663H15.8334C16.4965 1.66663 17.1323 1.93002 17.6012 2.39886C18.07 2.8677 18.3334 3.50358 18.3334 4.16663V12.5C18.3334 13.163 18.07 13.7989 17.6012 14.2677C17.1323 14.7366 16.4965 15 15.8334 15H6.17859L3.08934 18.0892C2.85101 18.3275 2.49257 18.3988 2.18118 18.2699C1.86978 18.1409 1.66675 17.837 1.66675 17.5V4.16663C1.66675 3.50358 1.93014 2.8677 2.39898 2.39886Z" fill="#161719"/>
</svg>
