<svg width="20" height="20" viewBox="0 0 20 20" fill="none" xmlns="http://www.w3.org/2000/svg">
<g clip-path="url(#clip0_147_2202)">
<path fill-rule="evenodd" clip-rule="evenodd" d="M9.99992 2.50004C5.85778 2.50004 2.49992 5.8579 2.49992 10C2.49992 14.1422 5.85778 17.5 9.99992 17.5C14.1421 17.5 17.4999 14.1422 17.4999 10C17.4999 5.8579 14.1421 2.50004 9.99992 2.50004ZM0.833252 10C0.833252 4.93743 4.93731 0.833374 9.99992 0.833374C15.0625 0.833374 19.1666 4.93743 19.1666 10C19.1666 15.0626 15.0625 19.1667 9.99992 19.1667C4.93731 19.1667 0.833252 15.0626 0.833252 10Z" fill="#161719"/>
<path fill-rule="evenodd" clip-rule="evenodd" d="M7.94012 5.93198C8.21108 5.78696 8.53987 5.80286 8.79558 5.97333L13.7956 9.30667C14.0274 9.46122 14.1667 9.72141 14.1667 10C14.1667 10.2787 14.0274 10.5389 13.7956 10.6934L8.79558 14.0268C8.53987 14.1972 8.21108 14.2131 7.94012 14.0681C7.66915 13.9231 7.5 13.6407 7.5 13.3334V6.66671C7.5 6.35938 7.66915 6.077 7.94012 5.93198ZM9.16667 8.22381V11.7763L11.831 10L9.16667 8.22381Z" fill="#161719"/>
</g>
<defs>
<clipPath id="clip0_147_2202">
<rect width="20" height="20" fill="white"/>
</clipPath>
</defs>
</svg>
