<svg width="20" height="20" viewBox="0 0 20 20" fill="none" xmlns="http://www.w3.org/2000/svg">
<path fill-rule="evenodd" clip-rule="evenodd" d="M9.16675 16.6667C9.16675 16.2065 9.53984 15.8334 10.0001 15.8334H17.5001C17.9603 15.8334 18.3334 16.2065 18.3334 16.6667C18.3334 17.1269 17.9603 17.5 17.5001 17.5H10.0001C9.53984 17.5 9.16675 17.1269 9.16675 16.6667Z" fill="#161719"/>
<path fill-rule="evenodd" clip-rule="evenodd" d="M15 3.23222C14.7521 3.23222 14.5145 3.33067 14.3392 3.50591L4.08578 13.7594L3.64528 15.5213L5.40727 15.0808L15.6607 4.8274C15.7475 4.74063 15.8163 4.63761 15.8633 4.52424C15.9102 4.41087 15.9344 4.28936 15.9344 4.16665C15.9344 4.04394 15.9102 3.92243 15.8633 3.80906C15.8163 3.69569 15.7475 3.59268 15.6607 3.50591C15.574 3.41914 15.4709 3.35031 15.3576 3.30335C15.2442 3.25639 15.1227 3.23222 15 3.23222ZM13.1607 2.3274C13.6485 1.8396 14.3101 1.56555 15 1.56555C15.3416 1.56555 15.6798 1.63283 15.9954 1.76355C16.311 1.89427 16.5977 2.08586 16.8392 2.3274C17.0808 2.56893 17.2724 2.85567 17.4031 3.17125C17.5338 3.48683 17.6011 3.82507 17.6011 4.16665C17.6011 4.50823 17.5338 4.84647 17.4031 5.16205C17.2724 5.47763 17.0808 5.76437 16.8392 6.00591L6.42256 16.4226C6.31577 16.5294 6.18195 16.6051 6.03542 16.6418L2.70209 17.4751C2.41811 17.5461 2.1177 17.4629 1.91072 17.2559C1.70374 17.0489 1.62053 16.7485 1.69152 16.4645L2.52486 13.1312C2.56149 12.9847 2.63726 12.8509 2.74405 12.7441L13.1607 2.3274Z" fill="#161719"/>
</svg>
