<svg width="20" height="20" viewBox="0 0 20 20" fill="none" xmlns="http://www.w3.org/2000/svg">
<path fill-rule="evenodd" clip-rule="evenodd" d="M9.53271 3.41812C9.81863 3.55795 9.99992 3.84844 9.99992 4.16671V15.8334C9.99992 16.1517 9.81863 16.4421 9.53271 16.582C9.2468 16.7218 8.9062 16.6866 8.65497 16.4912L1.15497 10.6578C0.951979 10.5 0.833252 10.2572 0.833252 10C0.833252 9.74289 0.951979 9.50013 1.15497 9.34225L8.65497 3.50892C8.9062 3.31352 9.2468 3.27828 9.53271 3.41812ZM3.02394 10L8.33325 14.1295V5.87058L3.02394 10Z" fill="#161719"/>
<path fill-rule="evenodd" clip-rule="evenodd" d="M18.6995 3.41812C18.9854 3.55795 19.1667 3.84844 19.1667 4.16671V15.8334C19.1667 16.1517 18.9854 16.4421 18.6995 16.582C18.4135 16.7218 18.0729 16.6866 17.8217 16.4912L10.3217 10.6578C10.1187 10.5 10 10.2572 10 10C10 9.74289 10.1187 9.50013 10.3217 9.34225L17.8217 3.50892C18.0729 3.31352 18.4135 3.27828 18.6995 3.41812ZM12.1907 10L17.5 14.1295V5.87058L12.1907 10Z" fill="#161719"/>
</svg>
