<svg width="20" height="20" viewBox="0 0 20 20" fill="none" xmlns="http://www.w3.org/2000/svg">
<path fill-rule="evenodd" clip-rule="evenodd" d="M18.0892 1.07745C18.4146 1.40289 18.4146 1.93053 18.0892 2.25596L17.0118 3.33337L18.9225 5.24412C19.248 5.56956 19.248 6.09719 18.9225 6.42263L16.0059 9.3393C15.6804 9.66473 15.1528 9.66473 14.8274 9.3393L12.9166 7.42855L10.6279 9.71725C10.8841 10.0638 11.0987 10.4404 11.2664 10.8396C11.5431 11.4982 11.6867 12.2051 11.6891 12.9194C11.6915 13.6338 11.5526 14.3416 11.2803 15.0021C11.008 15.6625 10.6078 16.2626 10.1027 16.7678C9.59751 17.2729 8.99743 17.6731 8.33698 17.9454C7.67652 18.2177 6.96872 18.3566 6.25434 18.3542C5.53997 18.3518 4.83312 18.2082 4.1745 17.9315C3.51588 17.6548 2.9185 17.2505 2.41675 16.742L2.4105 16.7357C1.42381 15.7141 0.877878 14.3458 0.890219 12.9255C0.902561 11.5053 1.47223 10.1467 2.47652 9.14245C3.48081 8.13816 4.83938 7.56849 6.25961 7.55615C7.40363 7.54621 8.51393 7.89853 9.43648 8.55166L16.9107 1.07745C17.2361 0.752015 17.7638 0.752015 18.0892 1.07745ZM15.8333 4.51189L14.0951 6.25004L15.4166 7.57153L17.1548 5.83337L15.8333 4.51189ZM10.08 10.2651C9.76602 10.5791 9.26275 10.5907 8.93482 10.2967C8.92746 10.2892 8.92006 10.2818 8.91263 10.2745C8.91053 10.2724 8.90842 10.2703 8.90632 10.2682L9.49026 9.67641M3.60627 15.5746C2.92512 14.8677 2.54829 13.9218 2.55682 12.94C2.56537 11.9568 2.95975 11.0162 3.65503 10.321C4.35031 9.62568 5.29086 9.2313 6.2741 9.22275C7.25733 9.21421 8.20459 9.59219 8.91185 10.2753C8.91941 10.2826 8.92706 10.2897 8.93482 10.2967C9.27349 10.6381 9.54343 11.0415 9.72978 11.4851C9.92134 11.9411 10.0208 12.4305 10.0225 12.925C10.0241 13.4196 9.92794 13.9096 9.73944 14.3668C9.55094 14.8241 9.27386 15.2395 8.92414 15.5892C8.57443 15.939 8.15899 16.216 7.70175 16.4045C7.24451 16.593 6.7545 16.6892 6.25993 16.6876C5.76536 16.6859 5.276 16.5864 4.82004 16.3949C4.36544 16.2039 3.95299 15.9251 3.60627 15.5746ZM3.60627 15.5746C3.6073 15.5757 3.60832 15.5767 3.60935 15.5778L3.00994 16.1567L3.60313 15.5714C3.60418 15.5725 3.60523 15.5735 3.60627 15.5746ZM10.08 10.2651C10.0803 10.2649 10.0806 10.2646 10.0809 10.2643L10.08 10.2651Z" fill="#161719"/>
</svg>
