<svg width="20" height="20" viewBox="0 0 20 20" fill="none" xmlns="http://www.w3.org/2000/svg">
<path fill-rule="evenodd" clip-rule="evenodd" d="M18.0387 1.86412C18.2256 2.02245 18.3334 2.25501 18.3334 2.49997V13.3333C18.3334 13.7935 17.9603 14.1666 17.5001 14.1666C17.0398 14.1666 16.6667 13.7935 16.6667 13.3333V3.48368L8.33341 4.87257V15C8.33341 15.4602 7.96032 15.8333 7.50008 15.8333C7.03984 15.8333 6.66675 15.4602 6.66675 15V4.16663C6.66675 3.75927 6.96126 3.41161 7.36308 3.34464L17.3631 1.67797C17.6047 1.6377 17.8518 1.70578 18.0387 1.86412Z" fill="#161719"/>
<path fill-rule="evenodd" clip-rule="evenodd" d="M5.00008 13.3333C4.07961 13.3333 3.33341 14.0795 3.33341 15C3.33341 15.9204 4.07961 16.6666 5.00008 16.6666C5.92056 16.6666 6.66675 15.9204 6.66675 15C6.66675 14.0795 5.92056 13.3333 5.00008 13.3333ZM1.66675 15C1.66675 13.159 3.15913 11.6666 5.00008 11.6666C6.84103 11.6666 8.33341 13.159 8.33341 15C8.33341 16.8409 6.84103 18.3333 5.00008 18.3333C3.15913 18.3333 1.66675 16.8409 1.66675 15Z" fill="#161719"/>
<path fill-rule="evenodd" clip-rule="evenodd" d="M15.0001 11.6667C14.0796 11.6667 13.3334 12.4129 13.3334 13.3333C13.3334 14.2538 14.0796 15 15.0001 15C15.9206 15 16.6667 14.2538 16.6667 13.3333C16.6667 12.4129 15.9206 11.6667 15.0001 11.6667ZM11.6667 13.3333C11.6667 11.4924 13.1591 10 15.0001 10C16.841 10 18.3334 11.4924 18.3334 13.3333C18.3334 15.1743 16.841 16.6667 15.0001 16.6667C13.1591 16.6667 11.6667 15.1743 11.6667 13.3333Z" fill="#161719"/>
</svg>
