<svg width="20" height="20" viewBox="0 0 20 20" fill="none" xmlns="http://www.w3.org/2000/svg">
<g clip-path="url(#clip0_147_2213)">
<path fill-rule="evenodd" clip-rule="evenodd" d="M7.43045 2.02502C7.61453 2.44685 7.4218 2.93803 6.99998 3.1221C5.87714 3.61209 4.89142 4.36968 4.12901 5.32862C3.3666 6.28757 2.8507 7.41869 2.62643 8.62308C2.40215 9.82747 2.47632 11.0685 2.84245 12.2376C3.20859 13.4067 3.85554 14.4683 4.72674 15.3296C5.59795 16.1909 6.66688 16.8257 7.84009 17.1784C9.01329 17.5312 10.2551 17.5912 11.4568 17.3532C12.6586 17.1152 13.7837 16.5864 14.7339 15.8131C15.6841 15.0398 16.4303 14.0455 16.9075 12.9171C17.0867 12.4932 17.5757 12.2949 17.9996 12.4741C18.4235 12.6534 18.6218 13.1423 18.4425 13.5662C17.8594 14.9453 16.9473 16.1606 15.7859 17.1057C14.6246 18.0509 13.2494 18.6972 11.7806 18.9881C10.3118 19.279 8.7941 19.2057 7.36018 18.7745C5.92626 18.3434 4.61978 17.5675 3.55498 16.5148C2.49017 15.4621 1.69946 14.1646 1.25196 12.7357C0.804462 11.3068 0.713809 9.78999 0.987925 8.31796C1.26204 6.84593 1.89258 5.46346 2.82442 4.29141C3.75626 3.11936 4.96102 2.19342 6.33338 1.59455C6.7552 1.41047 7.24638 1.6032 7.43045 2.02502Z" fill="#161719"/>
<path fill-rule="evenodd" clip-rule="evenodd" d="M9.41083 1.07745C9.56711 0.921171 9.77907 0.833374 10.0001 0.833374C11.2039 0.833374 12.3959 1.07048 13.508 1.53115C14.6202 1.99181 15.6307 2.66702 16.4819 3.51823C17.3331 4.36943 18.0083 5.37996 18.469 6.49211C18.9296 7.60426 19.1667 8.79626 19.1667 10C19.1667 10.4603 18.7937 10.8334 18.3334 10.8334H10.0001C9.53984 10.8334 9.16675 10.4603 9.16675 10V1.66671C9.16675 1.44569 9.25455 1.23373 9.41083 1.07745ZM10.8334 2.54648V9.16671H17.4536C17.3755 8.46788 17.1993 7.78212 16.9292 7.12991C16.5523 6.21997 15.9998 5.39318 15.3034 4.69674C14.6069 4.0003 13.7801 3.44785 12.8702 3.07094C12.218 2.80079 11.5322 2.62461 10.8334 2.54648Z" fill="#161719"/>
</g>
<defs>
<clipPath id="clip0_147_2213">
<rect width="20" height="20" fill="white"/>
</clipPath>
</defs>
</svg>
