<svg width="20" height="20" viewBox="0 0 20 20" fill="none" xmlns="http://www.w3.org/2000/svg">
<g clip-path="url(#clip0_147_2253)">
<path fill-rule="evenodd" clip-rule="evenodd" d="M9.99992 2.50004C5.85778 2.50004 2.49992 5.8579 2.49992 10C2.49992 14.1422 5.85778 17.5 9.99992 17.5C14.1421 17.5 17.4999 14.1422 17.4999 10C17.4999 5.8579 14.1421 2.50004 9.99992 2.50004ZM0.833252 10C0.833252 4.93743 4.93731 0.833374 9.99992 0.833374C15.0625 0.833374 19.1666 4.93743 19.1666 10C19.1666 15.0626 15.0625 19.1667 9.99992 19.1667C4.93731 19.1667 0.833252 15.0626 0.833252 10Z" fill="#161719"/>
<path fill-rule="evenodd" clip-rule="evenodd" d="M10.0001 4.16663C10.4603 4.16663 10.8334 4.53972 10.8334 4.99996V9.48493L13.7061 10.9213C14.1177 11.1271 14.2846 11.6277 14.0788 12.0393C13.8729 12.451 13.3724 12.6178 12.9607 12.412L9.6274 10.7453C9.34508 10.6042 9.16675 10.3156 9.16675 9.99996V4.99996C9.16675 4.53972 9.53984 4.16663 10.0001 4.16663Z" fill="#161719"/>
</g>
<defs>
<clipPath id="clip0_147_2253">
<rect width="20" height="20" fill="white"/>
</clipPath>
</defs>
</svg>
