<svg width="20" height="20" viewBox="0 0 20 20" fill="none" xmlns="http://www.w3.org/2000/svg">
<g clip-path="url(#clip0_147_2216)">
<path fill-rule="evenodd" clip-rule="evenodd" d="M6.25322 0.943172C6.49513 0.804934 6.79013 0.796746 7.03934 0.921352L13.3071 4.05523L18.7532 0.943172C19.0111 0.795789 19.328 0.796848 19.5849 0.945949C19.8419 1.09505 20 1.36965 20 1.66671V15C20 15.2991 19.8398 15.5752 19.5801 15.7236L13.7468 19.0569C13.5049 19.1951 13.2099 19.2033 12.9607 19.0787L6.69289 15.9448L1.24678 19.0569C0.988863 19.2043 0.67199 19.2032 0.415061 19.0541C0.158132 18.905 0 18.6304 0 18.3334V5.00004C0 4.70099 0.160238 4.42487 0.419884 4.27651L6.25322 0.943172ZM6.69289 2.61151L1.66667 5.48364V16.8974L6.25322 14.2765C6.49513 14.1383 6.79013 14.1301 7.03934 14.2547L13.3071 17.3886L18.3333 14.5164V3.10269L13.7468 5.72358C13.5049 5.86182 13.2099 5.87 12.9607 5.7454L6.69289 2.61151Z" fill="#161719"/>
<path fill-rule="evenodd" clip-rule="evenodd" d="M6.66658 0.833374C7.12682 0.833374 7.49992 1.20647 7.49992 1.66671V15C7.49992 15.4603 7.12682 15.8334 6.66658 15.8334C6.20635 15.8334 5.83325 15.4603 5.83325 15V1.66671C5.83325 1.20647 6.20635 0.833374 6.66658 0.833374Z" fill="#161719"/>
<path fill-rule="evenodd" clip-rule="evenodd" d="M13.3333 4.16663C13.7936 4.16663 14.1667 4.53972 14.1667 4.99996V18.3333C14.1667 18.7935 13.7936 19.1666 13.3333 19.1666C12.8731 19.1666 12.5 18.7935 12.5 18.3333V4.99996C12.5 4.53972 12.8731 4.16663 13.3333 4.16663Z" fill="#161719"/>
</g>
<defs>
<clipPath id="clip0_147_2216">
<rect width="20" height="20" fill="white"/>
</clipPath>
</defs>
</svg>
