<svg width="20" height="20" viewBox="0 0 20 20" fill="none" xmlns="http://www.w3.org/2000/svg">
<path fill-rule="evenodd" clip-rule="evenodd" d="M5.4495 2.69694C4.89565 2.78925 4.4601 2.92627 4.16667 3.03824V11.3112C4.49978 11.2162 4.89378 11.123 5.33709 11.0521C6.7535 10.8254 8.6959 10.8232 10.7551 11.7384C12.4617 12.4969 13.8501 12.4857 14.792 12.3063C15.2385 12.2213 15.5907 12.0971 15.8333 11.9928V3.80078C15.661 3.85289 15.4724 3.90111 15.2676 3.94207C14.0583 4.18392 12.3318 4.16348 10.1072 3.27367C8.18313 2.50406 6.56901 2.51036 5.4495 2.69694ZM2.5 12.4999V2.49994C2.5 2.20089 2.66024 1.92476 2.91989 1.7764L3.33333 2.49994C2.91989 1.7764 2.92066 1.77595 2.92066 1.77595L2.92151 1.77547L2.9234 1.7744L2.928 1.77181L2.94049 1.76488C2.95026 1.75951 2.96293 1.75266 2.97844 1.74448C3.00945 1.72813 3.05188 1.70646 3.10529 1.68074C3.21207 1.62933 3.36309 1.56159 3.55502 1.48778C3.93861 1.34025 4.48781 1.16757 5.1755 1.05295C6.55599 0.822877 8.48354 0.829174 10.7262 1.7262C12.6682 2.50302 14.0667 2.48258 14.9407 2.30777C15.3823 2.21945 15.7029 2.08918 15.9034 1.98895C16.0038 1.93874 16.0743 1.89596 16.1149 1.86959C16.1351 1.85641 16.1479 1.84735 16.1531 1.84357L16.1547 1.8424C16.4041 1.64823 16.7422 1.61167 17.0277 1.74885C17.3164 1.88762 17.5 2.1796 17.5 2.49994V12.4999C17.5 12.7786 17.3607 13.0388 17.1289 13.1933C16.723 13.6822 15.7091 13.8451 15.2566 13.9179C15.1939 13.928 15.1419 13.9363 15.1038 13.9436C13.8583 14.1808 12.1217 14.1697 10.0782 13.2614C8.38744 12.51 6.78816 12.5078 5.60041 12.6978C5.00675 12.7928 4.52153 12.9351 4.18867 13.0519C4.18126 13.0545 4.17392 13.0571 4.16667 13.0597V18.3333C4.16667 18.7936 3.79357 19.1667 3.33333 19.1667C2.8731 19.1667 2.5 18.7936 2.5 18.3333V12.5C2.5 12.5 2.5 12.5 2.5 12.4999Z" fill="#161719"/>
</svg>
