<svg width="20" height="20" viewBox="0 0 20 20" fill="none" xmlns="http://www.w3.org/2000/svg">
<g clip-path="url(#clip0_147_2219)">
<path fill-rule="evenodd" clip-rule="evenodd" d="M9.99992 2.50004C5.85778 2.50004 2.49992 5.8579 2.49992 10C2.49992 14.1422 5.85778 17.5 9.99992 17.5C14.1421 17.5 17.4999 14.1422 17.4999 10C17.4999 5.8579 14.1421 2.50004 9.99992 2.50004ZM0.833252 10C0.833252 4.93743 4.93731 0.833374 9.99992 0.833374C15.0625 0.833374 19.1666 4.93743 19.1666 10C19.1666 15.0626 15.0625 19.1667 9.99992 19.1667C4.93731 19.1667 0.833252 15.0626 0.833252 10Z" fill="#161719"/>
<path fill-rule="evenodd" clip-rule="evenodd" d="M6.07733 9.4107C6.40277 9.08527 6.9304 9.08527 7.25584 9.4107L9.99992 12.1548L12.744 9.4107C13.0694 9.08527 13.5971 9.08527 13.9225 9.4107C14.2479 9.73614 14.2479 10.2638 13.9225 10.5892L10.5892 13.9225C10.2637 14.248 9.7361 14.248 9.41066 13.9225L6.07733 10.5892C5.75189 10.2638 5.75189 9.73614 6.07733 9.4107Z" fill="#161719"/>
<path fill-rule="evenodd" clip-rule="evenodd" d="M10.0001 5.83337C10.4603 5.83337 10.8334 6.20647 10.8334 6.66671V13.3334C10.8334 13.7936 10.4603 14.1667 10.0001 14.1667C9.53984 14.1667 9.16675 13.7936 9.16675 13.3334V6.66671C9.16675 6.20647 9.53984 5.83337 10.0001 5.83337Z" fill="#161719"/>
</g>
<defs>
<clipPath id="clip0_147_2219">
<rect width="20" height="20" fill="white"/>
</clipPath>
</defs>
</svg>
