<svg width="20" height="20" viewBox="0 0 20 20" fill="none" xmlns="http://www.w3.org/2000/svg">
<path fill-rule="evenodd" clip-rule="evenodd" d="M0.833252 2.49996C0.833252 2.03972 1.20635 1.66663 1.66659 1.66663H6.66659C7.77165 1.66663 8.83146 2.10561 9.61286 2.88701C10.3943 3.66842 10.8333 4.72822 10.8333 5.83329V17.5C10.8333 17.9602 10.4602 18.3333 9.99992 18.3333C9.53968 18.3333 9.16659 17.9602 9.16659 17.5C9.16659 17.0579 8.99099 16.634 8.67843 16.3214C8.36587 16.0089 7.94195 15.8333 7.49992 15.8333H1.66659C1.20635 15.8333 0.833252 15.4602 0.833252 15V2.49996ZM9.16659 14.6132V5.83329C9.16659 5.17025 8.90319 4.53437 8.43435 4.06553C7.96551 3.59668 7.32963 3.33329 6.66659 3.33329H2.49992V14.1666H7.49992C8.09011 14.1666 8.66417 14.3231 9.16659 14.6132Z" fill="#161719"/>
<path fill-rule="evenodd" clip-rule="evenodd" d="M10.3871 2.88701C11.1685 2.10561 12.2283 1.66663 13.3334 1.66663H18.3334C18.7937 1.66663 19.1667 2.03972 19.1667 2.49996V15C19.1667 15.4602 18.7937 15.8333 18.3334 15.8333H12.5001C12.0581 15.8333 11.6341 16.0089 11.3216 16.3214C11.009 16.634 10.8334 17.0579 10.8334 17.5C10.8334 17.9602 10.4603 18.3333 10.0001 18.3333C9.53984 18.3333 9.16675 17.9602 9.16675 17.5V5.83329C9.16675 4.72822 9.60573 3.66842 10.3871 2.88701ZM10.8334 14.6132C11.3358 14.3231 11.9099 14.1666 12.5001 14.1666H17.5001V3.33329H13.3334C12.6704 3.33329 12.0345 3.59668 11.5656 4.06553C11.0968 4.53437 10.8334 5.17025 10.8334 5.83329V14.6132Z" fill="#161719"/>
</svg>
