<svg width="20" height="20" viewBox="0 0 20 20" fill="none" xmlns="http://www.w3.org/2000/svg">
<path fill-rule="evenodd" clip-rule="evenodd" d="M1.66675 4.99996C1.66675 4.53972 2.03984 4.16663 2.50008 4.16663H17.5001C17.9603 4.16663 18.3334 4.53972 18.3334 4.99996C18.3334 5.4602 17.9603 5.83329 17.5001 5.83329H2.50008C2.03984 5.83329 1.66675 5.4602 1.66675 4.99996Z" fill="#161719"/>
<path fill-rule="evenodd" clip-rule="evenodd" d="M8.33325 2.50004C8.11224 2.50004 7.90028 2.58784 7.744 2.74412C7.58772 2.9004 7.49992 3.11236 7.49992 3.33337V4.16671H12.4999V3.33337C12.4999 3.11236 12.4121 2.9004 12.2558 2.74412C12.0996 2.58784 11.8876 2.50004 11.6666 2.50004H8.33325ZM14.1666 4.16671V3.33337C14.1666 2.67033 13.9032 2.03445 13.4344 1.56561C12.9655 1.09677 12.3296 0.833374 11.6666 0.833374H8.33325C7.67021 0.833374 7.03433 1.09677 6.56549 1.56561C6.09664 2.03445 5.83325 2.67033 5.83325 3.33337V4.16671H4.16659C3.70635 4.16671 3.33325 4.5398 3.33325 5.00004V16.6667C3.33325 17.3297 3.59664 17.9656 4.06548 18.4345C4.53433 18.9033 5.17021 19.1667 5.83325 19.1667H14.1666C14.8296 19.1667 15.4655 18.9033 15.9344 18.4345C16.4032 17.9656 16.6666 17.3297 16.6666 16.6667V5.00004C16.6666 4.5398 16.2935 4.16671 15.8333 4.16671H14.1666ZM4.99992 5.83337V16.6667C4.99992 16.8877 5.08772 17.0997 5.244 17.256C5.40028 17.4122 5.61224 17.5 5.83325 17.5H14.1666C14.3876 17.5 14.5996 17.4122 14.7558 17.256C14.9121 17.0997 14.9999 16.8877 14.9999 16.6667V5.83337H4.99992Z" fill="#161719"/>
<path fill-rule="evenodd" clip-rule="evenodd" d="M8.33333 8.33337C8.79357 8.33337 9.16667 8.70647 9.16667 9.16671V14.1667C9.16667 14.6269 8.79357 15 8.33333 15C7.8731 15 7.5 14.6269 7.5 14.1667V9.16671C7.5 8.70647 7.8731 8.33337 8.33333 8.33337Z" fill="#161719"/>
<path fill-rule="evenodd" clip-rule="evenodd" d="M11.6666 8.33337C12.1268 8.33337 12.4999 8.70647 12.4999 9.16671V14.1667C12.4999 14.6269 12.1268 15 11.6666 15C11.2063 15 10.8333 14.6269 10.8333 14.1667V9.16671C10.8333 8.70647 11.2063 8.33337 11.6666 8.33337Z" fill="#161719"/>
</svg>
