<svg width="20" height="20" viewBox="0 0 20 20" fill="none" xmlns="http://www.w3.org/2000/svg">
<g clip-path="url(#clip0_147_2230)">
<path fill-rule="evenodd" clip-rule="evenodd" d="M9.99992 2.50004C5.85778 2.50004 2.49992 5.8579 2.49992 10C2.49992 14.1422 5.85778 17.5 9.99992 17.5C14.1421 17.5 17.4999 14.1422 17.4999 10C17.4999 5.8579 14.1421 2.50004 9.99992 2.50004ZM0.833252 10C0.833252 4.93743 4.93731 0.833374 9.99992 0.833374C15.0625 0.833374 19.1666 4.93743 19.1666 10C19.1666 15.0626 15.0625 19.1667 9.99992 19.1667C4.93731 19.1667 0.833252 15.0626 0.833252 10Z" fill="#161719"/>
<path fill-rule="evenodd" clip-rule="evenodd" d="M10.215 6.68688C9.82706 6.62034 9.42809 6.69324 9.08876 6.89267C8.74942 7.0921 8.49162 7.40519 8.36101 7.77648C8.20828 8.21064 7.73251 8.43879 7.29836 8.28606C6.8642 8.13333 6.63605 7.65757 6.78878 7.22341C7.05001 6.48082 7.56562 5.85464 8.24429 5.45578C8.92296 5.05692 9.72089 4.91112 10.4968 5.0442C11.2726 5.17728 11.9764 5.58066 12.4833 6.18289C12.9902 6.78499 13.2676 7.54701 13.2666 8.33404C13.2662 9.60934 12.3207 10.4515 11.6455 10.9017C11.2825 11.1437 10.9254 11.3216 10.6623 11.4385C10.5296 11.4975 10.4178 11.5423 10.3373 11.573C10.297 11.5883 10.2643 11.6002 10.2405 11.6087L10.2115 11.6188L10.2023 11.622L10.1991 11.6231L10.1978 11.6235C10.1975 11.6236 10.1967 11.6238 9.93323 10.8333L10.1967 11.6238C9.76013 11.7694 9.2882 11.5334 9.14266 11.0968C8.99721 10.6605 9.23277 10.1889 9.66883 10.043L9.66777 10.0434C9.66785 10.0433 9.66792 10.0433 9.66883 10.043L9.68213 10.0383C9.69495 10.0338 9.71596 10.0262 9.74399 10.0155C9.80018 9.99407 9.88374 9.9607 9.9854 9.91552C10.1911 9.8241 10.459 9.68955 10.721 9.5149C11.2956 9.13179 11.5999 8.72423 11.5999 8.33328L11.5999 8.33204C11.6005 7.93844 11.4617 7.55733 11.2083 7.25622C10.9548 6.95511 10.6029 6.75342 10.215 6.68688Z" fill="#161719"/>
<path fill-rule="evenodd" clip-rule="evenodd" d="M9.16675 14.1667C9.16675 13.7065 9.53984 13.3334 10.0001 13.3334H10.0084C10.4687 13.3334 10.8417 13.7065 10.8417 14.1667C10.8417 14.6269 10.4687 15 10.0084 15H10.0001C9.53984 15 9.16675 14.6269 9.16675 14.1667Z" fill="#161719"/>
</g>
<defs>
<clipPath id="clip0_147_2230">
<rect width="20" height="20" fill="white"/>
</clipPath>
</defs>
</svg>
