<svg width="20" height="20" viewBox="0 0 20 20" fill="none" xmlns="http://www.w3.org/2000/svg">
<path fill-rule="evenodd" clip-rule="evenodd" d="M8.75187 1.16899C9.13148 0.950237 9.56193 0.835083 10.0001 0.835083C10.4383 0.835083 10.8687 0.950247 11.2483 1.16902C11.2489 1.16935 11.2495 1.16968 11.2501 1.17002L17.0834 4.50334C17.4631 4.72255 17.7784 5.03775 17.9978 5.41731C18.2172 5.79686 18.333 6.22745 18.3334 6.66585V13.3342C18.333 13.7726 18.2172 14.2032 17.9978 14.5828C17.7784 14.9623 17.4631 15.2775 17.0834 15.4967L17.0802 15.4986L11.2501 18.8301C11.2496 18.8303 11.2491 18.8306 11.2486 18.8309C10.8689 19.0498 10.4383 19.165 10.0001 19.165C9.56183 19.165 9.13129 19.0498 8.75162 18.8309C8.75111 18.8307 8.7506 18.8304 8.75008 18.8301L2.91997 15.4986L2.91675 15.4967C2.53708 15.2775 2.22172 14.9623 2.00232 14.5828C1.78293 14.2032 1.6672 13.7726 1.66675 13.3342V6.66585C1.6672 6.22745 1.78293 5.79686 2.00232 5.41731C2.22172 5.03775 2.53708 4.72256 2.91675 4.50335L2.91996 4.5015L8.75187 1.16899ZM10.0001 2.50175C9.8538 2.50175 9.7101 2.54025 9.58341 2.61339L9.5802 2.61525L3.75008 5.94673C3.74964 5.94698 3.7492 5.94723 3.74877 5.94749C3.6228 6.02052 3.51815 6.1253 3.44527 6.25138C3.3722 6.37779 3.33363 6.52119 3.33341 6.6672V13.3329C3.33363 13.4789 3.3722 13.6223 3.44527 13.7487C3.51815 13.8748 3.6228 13.9796 3.74877 14.0526C3.7492 14.0528 3.74964 14.0531 3.75008 14.0534L9.58342 17.3867C9.7101 17.4598 9.8538 17.4983 10.0001 17.4983C10.1464 17.4983 10.2901 17.4598 10.4167 17.3867L10.42 17.3848L16.2501 14.0534C16.2505 14.0531 16.251 14.0528 16.2514 14.0526C16.3774 13.9796 16.482 13.8748 16.5549 13.7487C16.628 13.6222 16.6666 13.4787 16.6667 13.3325V6.66756C16.6666 6.52143 16.628 6.3779 16.5549 6.25138C16.482 6.1253 16.3774 6.02053 16.2514 5.94749C16.251 5.94724 16.2505 5.94698 16.2501 5.94673L10.4167 2.6134C10.2901 2.54026 10.1464 2.50175 10.0001 2.50175Z" fill="#161719"/>
<path fill-rule="evenodd" clip-rule="evenodd" d="M2.00373 5.38275C2.23419 4.98437 2.74396 4.84823 3.14234 5.07869L10.0001 9.04564L16.8578 5.07869C17.2562 4.84823 17.766 4.98437 17.9964 5.38275C18.2269 5.78114 18.0907 6.29091 17.6923 6.52136L10.4173 10.7297C10.1592 10.879 9.84094 10.879 9.5828 10.7297L2.3078 6.52136C1.90942 6.29091 1.77328 5.78114 2.00373 5.38275Z" fill="#161719"/>
<path fill-rule="evenodd" clip-rule="evenodd" d="M10.0001 9.16663C10.4603 9.16663 10.8334 9.53972 10.8334 9.99996V18.4C10.8334 18.8602 10.4603 19.2333 10.0001 19.2333C9.53984 19.2333 9.16675 18.8602 9.16675 18.4V9.99996C9.16675 9.53972 9.53984 9.16663 10.0001 9.16663Z" fill="#161719"/>
</svg>
