<svg width="20" height="20" viewBox="0 0 20 20" fill="none" xmlns="http://www.w3.org/2000/svg">
<path fill-rule="evenodd" clip-rule="evenodd" d="M4.16675 3.33333C4.16675 2.8731 4.53984 2.5 5.00008 2.5H8.33342C8.79365 2.5 9.16675 2.8731 9.16675 3.33333V16.6667C9.16675 17.1269 8.79365 17.5 8.33342 17.5H5.00008C4.53984 17.5 4.16675 17.1269 4.16675 16.6667V3.33333ZM5.83342 4.16667V15.8333H7.50008V4.16667H5.83342Z" fill="#161719"/>
<path fill-rule="evenodd" clip-rule="evenodd" d="M10.8333 3.33333C10.8333 2.8731 11.2063 2.5 11.6666 2.5H14.9999C15.4602 2.5 15.8333 2.8731 15.8333 3.33333V16.6667C15.8333 17.1269 15.4602 17.5 14.9999 17.5H11.6666C11.2063 17.5 10.8333 17.1269 10.8333 16.6667V3.33333ZM12.4999 4.16667V15.8333H14.1666V4.16667H12.4999Z" fill="#161719"/>
</svg>
