<svg width="20" height="20" viewBox="0 0 20 20" fill="none" xmlns="http://www.w3.org/2000/svg">
<path fill-rule="evenodd" clip-rule="evenodd" d="M8.33325 10C8.33325 9.07957 9.07944 8.33337 9.99992 8.33337C10.9204 8.33337 11.6666 9.07957 11.6666 10C11.6666 10.9205 10.9204 11.6667 9.99992 11.6667C9.07944 11.6667 8.33325 10.9205 8.33325 10Z" fill="#161719"/>
<path fill-rule="evenodd" clip-rule="evenodd" d="M14.1667 10C14.1667 9.07957 14.9129 8.33337 15.8334 8.33337C16.7539 8.33337 17.5001 9.07957 17.5001 10C17.5001 10.9205 16.7539 11.6667 15.8334 11.6667C14.9129 11.6667 14.1667 10.9205 14.1667 10Z" fill="#161719"/>
<path fill-rule="evenodd" clip-rule="evenodd" d="M2.5 10C2.5 9.07957 3.24619 8.33337 4.16667 8.33337C5.08714 8.33337 5.83333 9.07957 5.83333 10C5.83333 10.9205 5.08714 11.6667 4.16667 11.6667C3.24619 11.6667 2.5 10.9205 2.5 10Z" fill="#161719"/>
</svg>
