<svg width="20" height="20" viewBox="0 0 20 20" fill="none" xmlns="http://www.w3.org/2000/svg">
<path fill-rule="evenodd" clip-rule="evenodd" d="M3.80559 2.58226C4.09432 2.44349 4.43702 2.4825 4.68716 2.68262L13.0205 9.34928C13.2182 9.50743 13.3333 9.74685 13.3333 10C13.3333 10.2532 13.2182 10.4926 13.0205 10.6507L4.68716 17.3174C4.43702 17.5175 4.09432 17.5565 3.80559 17.4178C3.51687 17.279 3.33325 16.987 3.33325 16.6667V3.33334C3.33325 3.013 3.51687 2.72102 3.80559 2.58226ZM4.99992 5.06719V14.9328L11.1659 10L4.99992 5.06719Z" fill="#161719"/>
<path fill-rule="evenodd" clip-rule="evenodd" d="M15.8333 3.33337C16.2936 3.33337 16.6667 3.70647 16.6667 4.16671V15.8334C16.6667 16.2936 16.2936 16.6667 15.8333 16.6667C15.3731 16.6667 15 16.2936 15 15.8334V4.16671C15 3.70647 15.3731 3.33337 15.8333 3.33337Z" fill="#161719"/>
</svg>
