<svg width="20" height="20" viewBox="0 0 20 20" fill="none" xmlns="http://www.w3.org/2000/svg">
<path fill-rule="evenodd" clip-rule="evenodd" d="M15.0001 2.50004C14.0796 2.50004 13.3334 3.24623 13.3334 4.16671C13.3334 5.08718 14.0796 5.83337 15.0001 5.83337C15.9206 5.83337 16.6667 5.08718 16.6667 4.16671C16.6667 3.24623 15.9206 2.50004 15.0001 2.50004ZM11.6667 4.16671C11.6667 2.32576 13.1591 0.833374 15.0001 0.833374C16.841 0.833374 18.3334 2.32576 18.3334 4.16671C18.3334 6.00766 16.841 7.50004 15.0001 7.50004C13.1591 7.50004 11.6667 6.00766 11.6667 4.16671Z" fill="#161719"/>
<path fill-rule="evenodd" clip-rule="evenodd" d="M5.00008 8.33329C4.07961 8.33329 3.33341 9.07948 3.33341 9.99996C3.33341 10.9204 4.07961 11.6666 5.00008 11.6666C5.92056 11.6666 6.66675 10.9204 6.66675 9.99996C6.66675 9.07948 5.92056 8.33329 5.00008 8.33329ZM1.66675 9.99996C1.66675 8.15901 3.15913 6.66663 5.00008 6.66663C6.84103 6.66663 8.33341 8.15901 8.33341 9.99996C8.33341 11.8409 6.84103 13.3333 5.00008 13.3333C3.15913 13.3333 1.66675 11.8409 1.66675 9.99996Z" fill="#161719"/>
<path fill-rule="evenodd" clip-rule="evenodd" d="M15.0001 14.1667C14.0796 14.1667 13.3334 14.9129 13.3334 15.8333C13.3334 16.7538 14.0796 17.5 15.0001 17.5C15.9206 17.5 16.6667 16.7538 16.6667 15.8333C16.6667 14.9129 15.9206 14.1667 15.0001 14.1667ZM11.6667 15.8333C11.6667 13.9924 13.1591 12.5 15.0001 12.5C16.841 12.5 18.3334 13.9924 18.3334 15.8333C18.3334 17.6743 16.841 19.1667 15.0001 19.1667C13.1591 19.1667 11.6667 17.6743 11.6667 15.8333Z" fill="#161719"/>
<path fill-rule="evenodd" clip-rule="evenodd" d="M6.43841 10.8388C6.67013 10.4412 7.18034 10.3067 7.57799 10.5384L13.2697 13.8551C13.6673 14.0868 13.8018 14.597 13.5701 14.9946C13.3384 15.3923 12.8282 15.5268 12.4305 15.2951L6.73886 11.9784C6.34121 11.7467 6.20669 11.2365 6.43841 10.8388Z" fill="#161719"/>
<path fill-rule="evenodd" clip-rule="evenodd" d="M13.5615 5.005C13.7935 5.4025 13.6593 5.91279 13.2618 6.14476L7.57844 9.46143C7.18094 9.6934 6.67065 9.55921 6.43868 9.16171C6.20671 8.76421 6.3409 8.25392 6.7384 8.02195L12.4217 4.70528C12.8192 4.47331 13.3295 4.6075 13.5615 5.005Z" fill="#161719"/>
</svg>
