<svg width="20" height="20" viewBox="0 0 20 20" fill="none" xmlns="http://www.w3.org/2000/svg">
<path fill-rule="evenodd" clip-rule="evenodd" d="M5.83325 3.33329C5.61224 3.33329 5.40028 3.42109 5.244 3.57737C5.08772 3.73365 4.99992 3.94561 4.99992 4.16663V15.8806L9.51555 12.6552C9.8053 12.4482 10.1945 12.4482 10.4843 12.6552L14.9999 15.8806V4.16663C14.9999 3.94561 14.9121 3.73365 14.7558 3.57737C14.5996 3.42109 14.3876 3.33329 14.1666 3.33329H5.83325ZM4.06548 2.39886C4.53433 1.93002 5.17021 1.66663 5.83325 1.66663H14.1666C14.8296 1.66663 15.4655 1.93002 15.9344 2.39886C16.4032 2.8677 16.6666 3.50358 16.6666 4.16663V17.5C16.6666 17.8121 16.4921 18.0981 16.2146 18.2409C15.937 18.3838 15.6029 18.3595 15.3489 18.1781L9.99992 14.3574L4.65095 18.1781C4.39694 18.3595 4.06283 18.3838 3.78527 18.2409C3.50771 18.0981 3.33325 17.8121 3.33325 17.5V4.16663C3.33325 3.50358 3.59664 2.8677 4.06548 2.39886Z" fill="#161719"/>
</svg>
