<svg width="20" height="20" viewBox="0 0 20 20" fill="none" xmlns="http://www.w3.org/2000/svg">
<path fill-rule="evenodd" clip-rule="evenodd" d="M6.31818 3.66226C4.28477 3.66226 2.63636 5.33676 2.63636 7.40236C2.63636 8.1612 2.92222 8.98324 3.45911 9.86646C3.99441 10.7471 4.74656 11.635 5.60087 12.5118C6.45358 13.3869 7.38245 14.2252 8.26324 15.0179L8.33277 15.0805C8.92401 15.6126 9.49962 16.1305 10 16.6169C10.5004 16.1305 11.076 15.6125 11.6673 15.0805L11.7368 15.0179C12.6175 14.2252 13.5464 13.3869 14.3991 12.5118C15.2534 11.635 16.0056 10.7471 16.5409 9.86646C17.0778 8.98324 17.3636 8.1612 17.3636 7.40236C17.3636 5.33676 15.7152 3.66226 13.6818 3.66226C12.4373 3.66226 11.3367 4.28876 10.669 5.25196L10 6.21695L9.33104 5.25196C8.66333 4.28876 7.56274 3.66226 6.31818 3.66226ZM1 7.40236C1 4.41872 3.38103 2 6.31818 2C7.74757 2 9.04508 2.57333 10 3.5041C10.9549 2.57333 12.2524 2 13.6818 2C16.619 2 19 4.41872 19 7.40236C19 8.58155 18.5597 9.70918 17.9332 10.7398C17.3051 11.773 16.4567 12.7631 15.5621 13.6812C14.6659 14.6009 13.6976 15.474 12.8219 16.2621L12.7927 16.2884C11.9163 17.0771 11.1507 17.7662 10.594 18.3631L10 19L9.40604 18.3631C8.84932 17.7662 8.08365 17.0771 7.20723 16.2883L7.17811 16.2621C6.30239 15.474 5.33408 14.6009 4.43791 13.6812C3.54333 12.7631 2.69488 11.773 2.0668 10.7398C1.4403 9.70918 1 8.58155 1 7.40236Z" fill="#161719"/>
</svg>
