<svg width="20" height="20" viewBox="0 0 20 20" fill="none" xmlns="http://www.w3.org/2000/svg">
<g clip-path="url(#clip0_147_2263)">
<path fill-rule="evenodd" clip-rule="evenodd" d="M14.1667 6.66671C14.1667 6.20647 14.5398 5.83337 15.0001 5.83337H15.8334C16.9385 5.83337 17.9983 6.27236 18.7797 7.05376C19.5611 7.83516 20.0001 8.89497 20.0001 10C20.0001 11.1051 19.5611 12.1649 18.7797 12.9463C17.9983 13.7277 16.9385 14.1667 15.8334 14.1667H15.0001C14.5398 14.1667 14.1667 13.7936 14.1667 13.3334C14.1667 12.8731 14.5398 12.5 15.0001 12.5H15.8334C16.4965 12.5 17.1323 12.2366 17.6012 11.7678C18.07 11.299 18.3334 10.6631 18.3334 10C18.3334 9.337 18.07 8.70111 17.6012 8.23227C17.1323 7.76343 16.4965 7.50004 15.8334 7.50004H15.0001C14.5398 7.50004 14.1667 7.12694 14.1667 6.66671Z" fill="#161719"/>
<path fill-rule="evenodd" clip-rule="evenodd" d="M0.833252 6.66671C0.833252 6.20647 1.20635 5.83337 1.66659 5.83337H14.9999C15.4602 5.83337 15.8333 6.20647 15.8333 6.66671V14.1667C15.8333 15.2718 15.3943 16.3316 14.6129 17.113C13.8315 17.8944 12.7717 18.3334 11.6666 18.3334H4.99992C3.89485 18.3334 2.83504 17.8944 2.05364 17.113C1.27224 16.3316 0.833252 15.2718 0.833252 14.1667V6.66671ZM2.49992 7.50004V14.1667C2.49992 14.8297 2.76331 15.4656 3.23215 15.9345C3.70099 16.4033 4.33688 16.6667 4.99992 16.6667H11.6666C12.3296 16.6667 12.9655 16.4033 13.4344 15.9345C13.9032 15.4656 14.1666 14.8297 14.1666 14.1667V7.50004H2.49992Z" fill="#161719"/>
<path fill-rule="evenodd" clip-rule="evenodd" d="M5.00008 0C5.46032 0 5.83342 0.373096 5.83342 0.833333V3.33333C5.83342 3.79357 5.46032 4.16667 5.00008 4.16667C4.53984 4.16667 4.16675 3.79357 4.16675 3.33333V0.833333C4.16675 0.373096 4.53984 0 5.00008 0Z" fill="#161719"/>
<path fill-rule="evenodd" clip-rule="evenodd" d="M8.33333 0C8.79357 0 9.16667 0.373096 9.16667 0.833333V3.33333C9.16667 3.79357 8.79357 4.16667 8.33333 4.16667C7.8731 4.16667 7.5 3.79357 7.5 3.33333V0.833333C7.5 0.373096 7.8731 0 8.33333 0Z" fill="#161719"/>
<path fill-rule="evenodd" clip-rule="evenodd" d="M11.6666 0C12.1268 0 12.4999 0.373096 12.4999 0.833333V3.33333C12.4999 3.79357 12.1268 4.16667 11.6666 4.16667C11.2063 4.16667 10.8333 3.79357 10.8333 3.33333V0.833333C10.8333 0.373096 11.2063 0 11.6666 0Z" fill="#161719"/>
</g>
<defs>
<clipPath id="clip0_147_2263">
<rect width="20" height="20" fill="white"/>
</clipPath>
</defs>
</svg>
