<svg width="20" height="20" viewBox="0 0 20 20" fill="none" xmlns="http://www.w3.org/2000/svg">
<g clip-path="url(#clip0_147_2244)">
<path fill-rule="evenodd" clip-rule="evenodd" d="M10.0001 0.833374C10.4603 0.833374 10.8334 1.20647 10.8334 1.66671V5.00004C10.8334 5.46028 10.4603 5.83337 10.0001 5.83337C9.53984 5.83337 9.16675 5.46028 9.16675 5.00004V1.66671C9.16675 1.20647 9.53984 0.833374 10.0001 0.833374Z" fill="#161719"/>
<path fill-rule="evenodd" clip-rule="evenodd" d="M10.0001 14.1666C10.4603 14.1666 10.8334 14.5397 10.8334 15V18.3333C10.8334 18.7935 10.4603 19.1666 10.0001 19.1666C9.53984 19.1666 9.16675 18.7935 9.16675 18.3333V15C9.16675 14.5397 9.53984 14.1666 10.0001 14.1666Z" fill="#161719"/>
<path fill-rule="evenodd" clip-rule="evenodd" d="M3.5191 3.5191C3.84454 3.19367 4.37218 3.19367 4.69761 3.5191L7.05595 5.87744C7.38138 6.20287 7.38138 6.73051 7.05595 7.05595C6.73051 7.38138 6.20287 7.38138 5.87744 7.05595L3.5191 4.69761C3.19367 4.37218 3.19367 3.84454 3.5191 3.5191Z" fill="#161719"/>
<path fill-rule="evenodd" clip-rule="evenodd" d="M12.944 12.944C13.2695 12.6186 13.7971 12.6186 14.1225 12.944L16.4809 15.3024C16.8063 15.6278 16.8063 16.1554 16.4809 16.4809C16.1554 16.8063 15.6278 16.8063 15.3024 16.4809L12.944 14.1225C12.6186 13.7971 12.6186 13.2695 12.944 12.944Z" fill="#161719"/>
<path fill-rule="evenodd" clip-rule="evenodd" d="M0.833252 9.99996C0.833252 9.53972 1.20635 9.16663 1.66659 9.16663H4.99992C5.46016 9.16663 5.83325 9.53972 5.83325 9.99996C5.83325 10.4602 5.46016 10.8333 4.99992 10.8333H1.66659C1.20635 10.8333 0.833252 10.4602 0.833252 9.99996Z" fill="#161719"/>
<path fill-rule="evenodd" clip-rule="evenodd" d="M14.1667 9.99996C14.1667 9.53972 14.5398 9.16663 15.0001 9.16663H18.3334C18.7937 9.16663 19.1667 9.53972 19.1667 9.99996C19.1667 10.4602 18.7937 10.8333 18.3334 10.8333H15.0001C14.5398 10.8333 14.1667 10.4602 14.1667 9.99996Z" fill="#161719"/>
<path fill-rule="evenodd" clip-rule="evenodd" d="M7.05595 12.944C7.38138 13.2695 7.38138 13.7971 7.05595 14.1225L4.69761 16.4809C4.37218 16.8063 3.84454 16.8063 3.5191 16.4809C3.19367 16.1554 3.19367 15.6278 3.5191 15.3024L5.87744 12.944C6.20287 12.6186 6.73051 12.6186 7.05595 12.944Z" fill="#161719"/>
<path fill-rule="evenodd" clip-rule="evenodd" d="M16.4809 3.5191C16.8063 3.84454 16.8063 4.37218 16.4809 4.69761L14.1225 7.05595C13.7971 7.38138 13.2695 7.38138 12.944 7.05595C12.6186 6.73051 12.6186 6.20287 12.944 5.87744L15.3024 3.5191C15.6278 3.19367 16.1554 3.19367 16.4809 3.5191Z" fill="#161719"/>
</g>
<defs>
<clipPath id="clip0_147_2244">
<rect width="20" height="20" fill="white"/>
</clipPath>
</defs>
</svg>
