<svg width="20" height="20" viewBox="0 0 20 20" fill="none" xmlns="http://www.w3.org/2000/svg">
<path fill-rule="evenodd" clip-rule="evenodd" d="M3.33325 3.33329C3.11224 3.33329 2.90028 3.42109 2.744 3.57737C2.58772 3.73365 2.49992 3.94561 2.49992 4.16663V12.5C2.49992 12.721 2.58772 12.9329 2.744 13.0892C2.90028 13.2455 3.11224 13.3333 3.33325 13.3333H4.16658C4.62682 13.3333 4.99992 13.7064 4.99992 14.1666C4.99992 14.6269 4.62682 15 4.16658 15H3.33325C2.67021 15 2.03433 14.7366 1.56548 14.2677C1.09664 13.7989 0.833252 13.163 0.833252 12.5V4.16663C0.833252 3.50358 1.09664 2.8677 1.56548 2.39886C2.03433 1.93002 2.67021 1.66663 3.33325 1.66663H16.6666C17.3296 1.66663 17.9655 1.93002 18.4344 2.39886C18.9032 2.8677 19.1666 3.50358 19.1666 4.16663V12.5C19.1666 13.163 18.9032 13.7989 18.4344 14.2677C17.9655 14.7366 17.3296 15 16.6666 15H15.8333C15.373 15 14.9999 14.6269 14.9999 14.1666C14.9999 13.7064 15.373 13.3333 15.8333 13.3333H16.6666C16.8876 13.3333 17.0996 13.2455 17.2558 13.0892C17.4121 12.9329 17.4999 12.721 17.4999 12.5V4.16663C17.4999 3.94561 17.4121 3.73365 17.2558 3.57737C17.0996 3.42109 16.8876 3.33329 16.6666 3.33329H3.33325Z" fill="#161719"/>
<path fill-rule="evenodd" clip-rule="evenodd" d="M10 11.6666C10.2473 11.6666 10.4819 11.7765 10.6402 11.9665L14.8069 16.9665C15.0139 17.2149 15.0585 17.5606 14.9213 17.8534C14.7842 18.1462 14.49 18.3333 14.1667 18.3333H5.83334C5.51 18.3333 5.21584 18.1462 5.07869 17.8534C4.94154 17.5606 4.98616 17.2149 5.19316 16.9665L9.35983 11.9665C9.51815 11.7765 9.75269 11.6666 10 11.6666ZM7.61255 16.6666H12.3875L10 13.8017L7.61255 16.6666Z" fill="#161719"/>
</svg>
