<svg width="20" height="20" viewBox="0 0 20 20" fill="none" xmlns="http://www.w3.org/2000/svg">
<path fill-rule="evenodd" clip-rule="evenodd" d="M10.0001 3.33329C8.23197 3.33329 6.53628 4.03567 5.28604 5.28591C4.03579 6.53616 3.33341 8.23185 3.33341 9.99996V15C3.33341 15.4602 2.96032 15.8333 2.50008 15.8333C2.03984 15.8333 1.66675 15.4602 1.66675 15V9.99996C1.66675 7.78982 2.54472 5.67021 4.10752 4.1074C5.67033 2.5446 7.78994 1.66663 10.0001 1.66663C12.2102 1.66663 14.3298 2.5446 15.8926 4.1074C17.4554 5.67021 18.3334 7.78982 18.3334 9.99996V15C18.3334 15.4602 17.9603 15.8333 17.5001 15.8333C17.0398 15.8333 16.6667 15.4602 16.6667 15V9.99996C16.6667 8.23185 15.9644 6.53616 14.7141 5.28591C13.4639 4.03567 11.7682 3.33329 10.0001 3.33329Z" fill="#161719"/>
<path fill-rule="evenodd" clip-rule="evenodd" d="M1.66675 11.6667C1.66675 11.2065 2.03984 10.8334 2.50008 10.8334H5.00008C5.66312 10.8334 6.29901 11.0968 6.76785 11.5656C7.23669 12.0344 7.50008 12.6703 7.50008 13.3334V15.8334C7.50008 16.4964 7.23669 17.1323 6.76785 17.6011C6.29901 18.07 5.66312 18.3334 5.00008 18.3334H4.16675C3.50371 18.3334 2.86782 18.07 2.39898 17.6011C1.93014 17.1323 1.66675 16.4964 1.66675 15.8334V11.6667ZM3.33341 12.5V15.8334C3.33341 16.0544 3.42121 16.2664 3.57749 16.4226C3.73377 16.5789 3.94573 16.6667 4.16675 16.6667H5.00008C5.2211 16.6667 5.43306 16.5789 5.58934 16.4226C5.74562 16.2664 5.83342 16.0544 5.83342 15.8334V13.3334C5.83342 13.1124 5.74562 12.9004 5.58934 12.7441C5.43306 12.5878 5.2211 12.5 5.00008 12.5H3.33341ZM15.0001 12.5C14.7791 12.5 14.5671 12.5878 14.4108 12.7441C14.2545 12.9004 14.1667 13.1124 14.1667 13.3334V15.8334C14.1667 16.0544 14.2545 16.2663 14.4108 16.4226C14.5671 16.5789 14.7791 16.6667 15.0001 16.6667H15.8334C16.0544 16.6667 16.2664 16.5789 16.4227 16.4226C16.579 16.2663 16.6667 16.0544 16.6667 15.8334V12.5H15.0001ZM13.2323 11.5656C13.7012 11.0968 14.337 10.8334 15.0001 10.8334H17.5001C17.9603 10.8334 18.3334 11.2065 18.3334 11.6667V15.8334C18.3334 16.4964 18.07 17.1323 17.6012 17.6011C17.1323 18.07 16.4965 18.3334 15.8334 18.3334H15.0001C14.337 18.3334 13.7012 18.07 13.2323 17.6011C12.7635 17.1323 12.5001 16.4964 12.5001 15.8334V13.3334C12.5001 12.6703 12.7635 12.0344 13.2323 11.5656Z" fill="#161719"/>
</svg>
