<svg width="20" height="20" viewBox="0 0 20 20" fill="none" xmlns="http://www.w3.org/2000/svg">
<g clip-path="url(#clip0_147_2243)">
<path fill-rule="evenodd" clip-rule="evenodd" d="M0.833333 2.5C1.29357 2.5 1.66667 2.8731 1.66667 3.33333V7.5H5.83333C6.29357 7.5 6.66667 7.8731 6.66667 8.33333C6.66667 8.79357 6.29357 9.16667 5.83333 9.16667H0.833333C0.373096 9.16667 0 8.79357 0 8.33333V3.33333C0 2.8731 0.373096 2.5 0.833333 2.5Z" fill="#161719"/>
<path fill-rule="evenodd" clip-rule="evenodd" d="M8.8378 1.75572C10.6269 1.50401 12.4493 1.84055 14.0305 2.71466C15.6117 3.58876 16.866 4.95306 17.6044 6.602C18.3428 8.25095 18.5253 10.0952 18.1244 11.8569C17.7235 13.6186 16.7609 15.2022 15.3817 16.3693C14.0025 17.5363 12.2814 18.2235 10.4776 18.3273C8.67391 18.4312 6.8853 17.946 5.3813 16.9449C3.8773 15.9437 2.73939 14.481 2.13902 12.7769C1.98609 12.3428 2.21401 11.867 2.64809 11.714C3.08217 11.5611 3.55805 11.789 3.71098 12.2231C4.19127 13.5863 5.1016 14.7566 6.3048 15.5574C7.508 16.3583 8.9389 16.7465 10.3819 16.6634C11.8249 16.5804 13.2018 16.0306 14.3052 15.097C15.4085 14.1633 16.1786 12.8964 16.4993 11.4871C16.82 10.0777 16.674 8.60231 16.0833 7.28316C15.4926 5.96401 14.4891 4.87256 13.2242 4.17328C11.9592 3.474 10.5013 3.20476 9.07 3.40614C7.63872 3.60751 6.31166 4.26858 5.28876 5.28975C5.28281 5.29569 5.27677 5.30154 5.27065 5.30729L1.40398 8.94063C1.06858 9.25579 0.541201 9.23938 0.226042 8.90398C-0.089118 8.56858 -0.0727107 8.0412 0.262689 7.72604L4.12041 4.10111C5.39779 2.82984 7.05297 2.00684 8.8378 1.75572Z" fill="#161719"/>
</g>
<defs>
<clipPath id="clip0_147_2243">
<rect width="20" height="20" fill="white"/>
</clipPath>
</defs>
</svg>
