<svg width="20" height="20" viewBox="0 0 20 20" fill="none" xmlns="http://www.w3.org/2000/svg">
<path fill-rule="evenodd" clip-rule="evenodd" d="M3.33333 9.16663C3.79357 9.16663 4.16667 9.53972 4.16667 9.99996V16.6666C4.16667 16.8876 4.25446 17.0996 4.41074 17.2559C4.56702 17.4122 4.77899 17.5 5 17.5H15C15.221 17.5 15.433 17.4122 15.5893 17.2559C15.7455 17.0996 15.8333 16.8876 15.8333 16.6666V9.99996C15.8333 9.53972 16.2064 9.16663 16.6667 9.16663C17.1269 9.16663 17.5 9.53972 17.5 9.99996V16.6666C17.5 17.3297 17.2366 17.9656 16.7678 18.4344C16.2989 18.9032 15.663 19.1666 15 19.1666H5C4.33696 19.1666 3.70107 18.9032 3.23223 18.4344C2.76339 17.9656 2.5 17.3297 2.5 16.6666V9.99996C2.5 9.53972 2.8731 9.16663 3.33333 9.16663Z" fill="#161719"/>
<path fill-rule="evenodd" clip-rule="evenodd" d="M9.41066 1.07745C9.7361 0.752015 10.2637 0.752015 10.5892 1.07745L13.9225 4.41079C14.2479 4.73622 14.2479 5.26386 13.9225 5.5893C13.5971 5.91473 13.0694 5.91473 12.744 5.5893L9.99992 2.84522L7.25584 5.5893C6.9304 5.91473 6.40277 5.91473 6.07733 5.5893C5.75189 5.26386 5.75189 4.73622 6.07733 4.41079L9.41066 1.07745Z" fill="#161719"/>
<path fill-rule="evenodd" clip-rule="evenodd" d="M10.0001 0.833374C10.4603 0.833374 10.8334 1.20647 10.8334 1.66671V12.5C10.8334 12.9603 10.4603 13.3334 10.0001 13.3334C9.53984 13.3334 9.16675 12.9603 9.16675 12.5V1.66671C9.16675 1.20647 9.53984 0.833374 10.0001 0.833374Z" fill="#161719"/>
</svg>
