<svg width="20" height="20" viewBox="0 0 20 20" fill="none" xmlns="http://www.w3.org/2000/svg">
<path fill-rule="evenodd" clip-rule="evenodd" d="M15.5893 5.58922C15.9148 5.26378 15.9148 4.73614 15.5893 4.4107C15.2639 4.08527 14.7363 4.08527 14.4108 4.4107L10.0001 8.82145L5.58934 4.4107C5.2639 4.08527 4.73626 4.08527 4.41083 4.4107C4.08539 4.73614 4.08539 5.26378 4.41083 5.58922L8.82157 9.99996L4.41083 14.4107C4.08539 14.7361 4.08539 15.2638 4.41083 15.5892C4.73626 15.9147 5.2639 15.9147 5.58934 15.5892L10.0001 11.1785L14.4108 15.5892C14.7363 15.9147 15.2639 15.9147 15.5893 15.5892C15.9148 15.2638 15.9148 14.7361 15.5893 14.4107L11.1786 9.99996L15.5893 5.58922Z" fill="#161719"/>
</svg>
