<svg width="20" height="20" viewBox="0 0 20 20" fill="none" xmlns="http://www.w3.org/2000/svg">
<path fill-rule="evenodd" clip-rule="evenodd" d="M17.1367 2.76299C16.9337 2.58876 16.6739 2.49512 16.4064 2.49985L16.3917 2.49998H15V9.99998H16.3917L16.4064 10.0001C16.6739 10.0048 16.9337 9.9112 17.1367 9.73696C17.3275 9.57322 17.4555 9.34902 17.5 9.10259V3.39736C17.4555 3.15093 17.3275 2.92673 17.1367 2.76299ZM13.3333 10.6565L10.3268 17.4211C10.0756 17.341 9.84468 17.2017 9.65481 17.0118C9.34225 16.6993 9.16665 16.2753 9.16665 15.8333V12.5C9.16665 12.0397 8.79356 11.6666 8.33332 11.6666H3.61665L3.60722 11.6667C3.48642 11.6681 3.36677 11.6432 3.25656 11.5937C3.14635 11.5442 3.04821 11.4714 2.96894 11.3802C2.88967 11.2891 2.83117 11.1818 2.79749 11.0658C2.76385 10.9499 2.75577 10.8281 2.77381 10.7088C2.77379 10.709 2.77383 10.7087 2.77381 10.7088L3.9239 3.20826C3.95403 3.00954 4.05497 2.82842 4.2081 2.69825C4.36124 2.56809 4.55626 2.49765 4.75723 2.49992L13.3333 2.49998V10.6565ZM16.3849 0.833309C17.0579 0.823365 17.7114 1.05983 18.2223 1.49833C18.7351 1.93857 19.0685 2.5518 19.1591 3.22161C19.1641 3.25863 19.1667 3.29595 19.1667 3.33331V9.16664C19.1667 9.204 19.1641 9.24132 19.1591 9.27834C19.0685 9.94815 18.7351 10.5614 18.2223 11.0016C17.7114 11.4401 17.0579 11.6766 16.3849 11.6666H14.7082L11.5948 18.6718C11.4611 18.9727 11.1626 19.1666 10.8333 19.1666C9.94926 19.1666 9.10142 18.8155 8.4763 18.1903C7.85117 17.5652 7.49999 16.7174 7.49999 15.8333V13.3333H3.62091C3.26029 13.3366 2.90318 13.2619 2.57412 13.1142C2.24349 12.9658 1.94907 12.7473 1.71126 12.4739C1.47346 12.2004 1.29796 11.8785 1.19691 11.5304C1.09587 11.1824 1.0717 10.8166 1.12609 10.4583L2.27607 2.95836C2.27603 2.95861 2.27611 2.95811 2.27607 2.95836C2.36662 2.36252 2.66947 1.81869 3.12869 1.42835C3.58678 1.03898 4.16981 0.82776 4.77089 0.833309H16.3849Z" fill="#161719"/>
</svg>
